<svg width="69" height="48" viewBox="0 0 69 48" fill="none" xmlns="http://www.w3.org/2000/svg">
<path fill-rule="evenodd" clip-rule="evenodd" d="M37.7666 1.05596C36.3588 -0.351988 34.076 -0.351988 32.6678 1.05596L28.5889 5.13494C26.0546 7.66931 21.9456 7.66931 19.4113 5.13494L15.8422 1.56585C14.4342 0.157896 12.1515 0.157896 10.7435 1.56585C9.33551 2.97384 9.33551 5.25661 10.7435 6.66456L14.3126 10.2337C19.6629 15.584 28.3375 15.584 33.6878 10.2337L37.7666 6.15467C39.1745 4.74672 39.1745 2.46395 37.7666 1.05596Z" fill="#7C7C7C"/>
<path fill-rule="evenodd" clip-rule="evenodd" d="M10.2337 46.9441C11.6417 48.352 13.9245 48.352 15.3324 46.9441L19.4114 42.8652C21.9457 40.331 26.0547 40.331 28.5891 42.8652L32.1581 46.4343C33.5663 47.8421 35.8488 47.8421 37.257 46.4343C38.6648 45.0264 38.6648 42.7436 37.257 41.3354L33.6879 37.7664C28.3376 32.4161 19.663 32.4161 14.3127 37.7664L10.2337 41.8453C8.82574 43.2535 8.82574 45.5363 10.2337 46.9441Z" fill="#7C7C7C"/>
<path fill-rule="evenodd" clip-rule="evenodd" d="M1.05596 37.7664C-0.351988 36.3586 -0.351988 34.0758 1.05596 32.6676L5.13494 28.5887C7.66931 26.0544 7.66931 21.9453 5.13494 19.4111L1.56585 15.8419C0.157897 14.434 0.157897 12.1512 1.56585 10.7432C2.97384 9.33527 5.25661 9.33527 6.66456 10.7432L10.2337 14.3123C15.584 19.6626 15.584 28.3372 10.2337 33.6876L6.15471 37.7664C4.74672 39.1743 2.46395 39.1743 1.05596 37.7664Z" fill="#059669"/>
<path d="M35.3918 23.872C35.3918 24.4736 35.5134 25.0688 35.7566 25.6576C36.0126 26.2464 36.3518 26.7776 36.7742 27.2512C37.2094 27.712 37.715 28.0896 38.291 28.384C38.867 28.6784 39.4878 28.832 40.1534 28.8448C40.8446 28.8448 41.4526 28.7616 41.9774 28.5952C42.515 28.416 43.0526 28.1024 43.5902 27.6544C43.8462 27.4368 44.1278 27.2384 44.435 27.0592C44.755 26.8672 45.1006 26.7712 45.4718 26.7712C45.6894 26.7712 45.9198 26.8224 46.163 26.9248C46.4062 27.0144 46.6558 27.168 46.9118 27.3856C47.1294 27.5776 47.2894 27.808 47.3918 28.0768C47.507 28.3328 47.5582 28.608 47.5454 28.9024C47.5454 29.184 47.4814 29.4656 47.3534 29.7472C47.2382 30.0288 47.059 30.2976 46.8158 30.5536C46.0222 31.36 45.075 31.9744 43.9742 32.3968C42.8862 32.8192 41.7406 33.0304 40.5374 33.0304C39.2574 33.0304 38.0542 32.8 36.9278 32.3392C35.8014 31.8656 34.8158 31.2192 33.971 30.4C33.1262 29.5808 32.4606 28.6208 31.9742 27.52C31.4878 26.4064 31.2446 25.2096 31.2446 23.9296C31.2574 23.9168 31.2638 23.904 31.2638 23.8912H31.2446C31.2446 22.6112 31.4878 21.4144 31.9742 20.3008C32.4606 19.1744 33.1262 18.2016 33.971 17.3824C34.8158 16.5504 35.8014 15.8976 36.9278 15.424C38.0542 14.9504 39.2574 14.7136 40.5374 14.7136C41.7406 14.7136 42.8862 14.9184 43.9742 15.328C45.075 15.7248 46.0222 16.3264 46.8158 17.1328C47.059 17.376 47.2446 17.6448 47.3726 17.9392C47.5006 18.2208 47.5646 18.5088 47.5646 18.8032C47.5774 19.0848 47.5262 19.36 47.411 19.6288C47.2958 19.8848 47.123 20.1152 46.8926 20.32C46.6366 20.5376 46.3934 20.6912 46.163 20.7808C45.9326 20.8704 45.7086 20.9152 45.491 20.9152C45.1198 20.9152 44.7742 20.8256 44.4542 20.6464C44.147 20.4544 43.859 20.2496 43.5902 20.032C43.0526 19.6224 42.5214 19.328 41.9966 19.1488C41.4718 18.9696 40.9214 18.88 40.3454 18.88C39.6926 18.88 39.0654 19.0144 38.4638 19.2832C37.8622 19.552 37.3374 19.9168 36.8894 20.3776C36.4414 20.8384 36.083 21.3696 35.8142 21.9712C35.5454 22.5728 35.411 23.2 35.411 23.8528L35.3918 23.872Z" fill="#7C7C7C"/>
<path d="M50.2193 23.872C50.2193 22.6048 50.4625 21.4208 50.9489 20.32C51.4353 19.2064 52.0945 18.2336 52.9265 17.4016C53.7586 16.5696 54.725 15.9168 55.8258 15.4432C56.9394 14.9568 58.1234 14.7136 59.3778 14.7136C60.645 14.7136 61.8354 14.9568 62.949 15.4432C64.0626 15.9168 65.029 16.5696 65.8482 17.4016C66.6802 18.2336 67.333 19.2064 67.8066 20.32C68.2802 21.4208 68.517 22.6048 68.517 23.872C68.517 25.1264 68.2802 26.3104 67.8066 27.424C67.333 28.5376 66.6802 29.5104 65.8482 30.3424C65.029 31.1744 64.0626 31.8336 62.949 32.32C61.8354 32.7936 60.645 33.0304 59.3778 33.0304C58.4562 33.0304 57.573 32.9024 56.7282 32.6464C55.8962 32.3776 55.1154 32.0064 54.3858 31.5328V37.12C54.3858 37.4272 54.3346 37.7088 54.2322 37.9648C54.1426 38.2336 54.0082 38.464 53.829 38.656C53.6498 38.848 53.4322 39.0016 53.1762 39.1168C52.933 39.232 52.6578 39.2896 52.3505 39.2896C52.0561 39.2896 51.781 39.232 51.525 39.1168C51.2689 39.0016 51.0449 38.848 50.8529 38.656C50.6609 38.464 50.5073 38.2336 50.3921 37.9648C50.2769 37.7088 50.2193 37.4272 50.2193 37.12V23.872ZM54.3858 23.872C54.3858 24.5504 54.5138 25.1968 54.7698 25.8112C55.0386 26.4128 55.397 26.944 55.845 27.4048C56.3058 27.8528 56.837 28.2112 57.4386 28.48C58.0402 28.736 58.6866 28.864 59.3778 28.864C60.069 28.864 60.7154 28.736 61.317 28.48C61.9314 28.2112 62.4626 27.8528 62.9106 27.4048C63.3586 26.944 63.7106 26.4128 63.9666 25.8112C64.2226 25.1968 64.3506 24.5504 64.3506 23.872C64.3506 23.1808 64.2226 22.5344 63.9666 21.9328C63.7106 21.3184 63.3586 20.7872 62.9106 20.3392C62.4626 19.8912 61.9314 19.5392 61.317 19.2832C60.7154 19.0144 60.069 18.88 59.3778 18.88C58.6994 18.88 58.053 19.0144 57.4386 19.2832C56.837 19.5392 56.3058 19.8912 55.845 20.3392C55.397 20.7872 55.0386 21.3184 54.7698 21.9328C54.5138 22.5344 54.3858 23.1808 54.3858 23.872Z" fill="#059669"/>
</svg>
