<svg width="39" height="48" viewBox="0 0 39 48" fill="none" xmlns="http://www.w3.org/2000/svg">
<path fill-rule="evenodd" clip-rule="evenodd" d="M37.7666 1.05596C36.3588 -0.351988 34.076 -0.351988 32.6678 1.05596L28.5889 5.13494C26.0546 7.66931 21.9456 7.66931 19.4113 5.13494L15.8422 1.56585C14.4342 0.157896 12.1515 0.157896 10.7435 1.56585C9.33551 2.97384 9.33551 5.25661 10.7435 6.66456L14.3126 10.2337C19.6629 15.584 28.3375 15.584 33.6878 10.2337L37.7666 6.15467C39.1745 4.74672 39.1745 2.46395 37.7666 1.05596Z" fill="#7C7C7C"/>
<path fill-rule="evenodd" clip-rule="evenodd" d="M10.2337 46.9441C11.6417 48.352 13.9245 48.352 15.3324 46.9441L19.4114 42.8652C21.9457 40.331 26.0547 40.331 28.5891 42.8652L32.1581 46.4343C33.5663 47.8421 35.8488 47.8421 37.257 46.4343C38.6648 45.0264 38.6648 42.7436 37.257 41.3354L33.6879 37.7664C28.3376 32.4161 19.663 32.4161 14.3127 37.7664L10.2337 41.8453C8.82574 43.2535 8.82574 45.5363 10.2337 46.9441Z" fill="#7C7C7C"/>
<path fill-rule="evenodd" clip-rule="evenodd" d="M1.05596 37.7664C-0.351988 36.3586 -0.351988 34.0758 1.05596 32.6676L5.13494 28.5887C7.66931 26.0544 7.66931 21.9453 5.13494 19.4111L1.56585 15.8419C0.157897 14.434 0.157897 12.1512 1.56585 10.7432C2.97384 9.33527 5.25661 9.33527 6.66456 10.7432L10.2337 14.3123C15.584 19.6626 15.584 28.3372 10.2337 33.6876L6.15471 37.7664C4.74672 39.1743 2.46395 39.1743 1.05596 37.7664Z" fill="#059669"/>
</svg>
