<svg width="328" height="40" viewBox="0 0 328 40" fill="none" xmlns="http://www.w3.org/2000/svg">
<path d="M5.24 19.84C5.24 20.592 5.392 21.336 5.696 22.072C6.016 22.808 6.44 23.472 6.968 24.064C7.512 24.64 8.144 25.112 8.864 25.48C9.584 25.848 10.36 26.04 11.192 26.056C12.056 26.056 12.816 25.952 13.472 25.744C14.144 25.52 14.816 25.128 15.488 24.568C15.808 24.296 16.16 24.048 16.544 23.824C16.944 23.584 17.376 23.464 17.84 23.464C18.112 23.464 18.4 23.528 18.704 23.656C19.008 23.768 19.32 23.96 19.64 24.232C19.912 24.472 20.112 24.76 20.24 25.096C20.384 25.416 20.448 25.76 20.432 26.128C20.432 26.48 20.352 26.832 20.192 27.184C20.048 27.536 19.824 27.872 19.52 28.192C18.528 29.2 17.344 29.968 15.968 30.496C14.608 31.024 13.176 31.288 11.672 31.288C10.072 31.288 8.568 31 7.16 30.424C5.752 29.832 4.52 29.024 3.464 28C2.408 26.976 1.576 25.776 0.968 24.4C0.36 23.008 0.0560001 21.512 0.0560001 19.912C0.0720001 19.896 0.08 19.88 0.08 19.864H0.0560001C0.0560001 18.264 0.36 16.768 0.968 15.376C1.576 13.968 2.408 12.752 3.464 11.728C4.52 10.688 5.752 9.872 7.16 9.28C8.568 8.688 10.072 8.392 11.672 8.392C13.176 8.392 14.608 8.648 15.968 9.16C17.344 9.656 18.528 10.408 19.52 11.416C19.824 11.72 20.056 12.056 20.216 12.424C20.376 12.776 20.456 13.136 20.456 13.504C20.472 13.856 20.408 14.2 20.264 14.536C20.12 14.856 19.904 15.144 19.616 15.4C19.296 15.672 18.992 15.864 18.704 15.976C18.416 16.088 18.136 16.144 17.864 16.144C17.4 16.144 16.968 16.032 16.568 15.808C16.184 15.568 15.824 15.312 15.488 15.04C14.816 14.528 14.152 14.16 13.496 13.936C12.84 13.712 12.152 13.6 11.432 13.6C10.616 13.6 9.832 13.768 9.08 14.104C8.328 14.44 7.672 14.896 7.112 15.472C6.552 16.048 6.104 16.712 5.768 17.464C5.432 18.216 5.264 19 5.264 19.816L5.24 19.84ZM29.0304 28.432C29.0304 28.784 28.9664 29.12 28.8384 29.44C28.7104 29.76 28.5264 30.032 28.2864 30.256C28.0624 30.48 27.7984 30.664 27.4944 30.808C27.1904 30.936 26.8624 31 26.5104 31C26.1424 31 25.7904 30.936 25.4544 30.808C25.1344 30.664 24.8544 30.48 24.6144 30.256C24.3744 30.032 24.1824 29.76 24.0384 29.44C23.8944 29.12 23.8224 28.784 23.8224 28.432V20.68C23.8224 19.032 24.1344 17.48 24.7584 16.024C25.3984 14.568 26.2624 13.296 27.3504 12.208C28.4384 11.12 29.7104 10.264 31.1664 9.64C32.6224 9 34.1664 8.68 35.7984 8.68H35.8464C36.7104 8.68 37.3744 8.928 37.8384 9.424C38.3184 9.904 38.5584 10.52 38.5584 11.272C38.5584 11.64 38.4864 11.984 38.3424 12.304C38.1984 12.624 37.9984 12.904 37.7424 13.144C37.5024 13.368 37.2144 13.552 36.8784 13.696C36.5584 13.824 36.2144 13.888 35.8464 13.888H35.7984C34.8864 13.888 34.0144 14.064 33.1824 14.416C32.3664 14.768 31.6544 15.248 31.0464 15.856C30.4384 16.464 29.9504 17.176 29.5824 17.992C29.2144 18.808 29.0304 19.68 29.0304 20.608V28.432ZM39.3841 19.84C39.3841 18.256 39.6881 16.776 40.2961 15.4C40.9041 14.008 41.7281 12.792 42.7681 11.752C43.8081 10.712 45.0161 9.896 46.3921 9.304C47.7841 8.696 49.2641 8.392 50.8321 8.392C52.4161 8.392 53.9041 8.696 55.2961 9.304C56.6881 9.896 57.8961 10.712 58.9201 11.752C59.9601 12.792 60.7761 14.008 61.3681 15.4C61.9601 16.776 62.2561 18.256 62.2561 19.84V28.336C62.2561 28.704 62.1841 29.048 62.0401 29.368C61.9121 29.688 61.7281 29.968 61.4881 30.208C61.2481 30.448 60.9601 30.64 60.6241 30.784C60.3041 30.928 59.9601 31 59.5921 31C58.9681 31 58.4401 30.816 58.0081 30.448C57.5761 30.08 57.2881 29.616 57.1441 29.056C56.2321 29.744 55.2401 30.288 54.1681 30.688C53.1121 31.088 52.0001 31.288 50.8321 31.288C49.2641 31.288 47.7841 30.992 46.3921 30.4C45.0161 29.792 43.8081 28.968 42.7681 27.928C41.7281 26.888 40.9041 25.672 40.2961 24.28C39.6881 22.888 39.3841 21.408 39.3841 19.84ZM44.5921 19.84C44.5921 20.688 44.7521 21.496 45.0721 22.264C45.4081 23.016 45.8561 23.68 46.4161 24.256C46.9921 24.816 47.6561 25.264 48.4081 25.6C49.1601 25.92 49.9681 26.08 50.8321 26.08C51.6961 26.08 52.5041 25.92 53.2561 25.6C54.0241 25.264 54.6881 24.816 55.2481 24.256C55.8081 23.68 56.2481 23.016 56.5681 22.264C56.8881 21.496 57.0481 20.688 57.0481 19.84C57.0481 18.976 56.8881 18.168 56.5681 17.416C56.2481 16.648 55.8081 15.984 55.2481 15.424C54.6881 14.864 54.0241 14.424 53.2561 14.104C52.5041 13.768 51.6961 13.6 50.8321 13.6C49.9841 13.6 49.1761 13.768 48.4081 14.104C47.6561 14.424 46.9921 14.864 46.4161 15.424C45.8561 15.984 45.4081 16.648 45.0721 17.416C44.7521 18.168 44.5921 18.976 44.5921 19.84ZM88.1941 28.48C88.1941 28.848 88.1221 29.192 87.9781 29.512C87.8501 29.816 87.6741 30.088 87.4501 30.328C87.2261 30.552 86.9541 30.728 86.6341 30.856C86.3301 30.984 86.0021 31.048 85.6501 31.048C85.2981 31.048 84.9541 30.984 84.6181 30.856C84.2981 30.728 84.0181 30.552 83.7781 30.328C83.5381 30.088 83.3461 29.816 83.2021 29.512C83.0581 29.192 82.9861 28.848 82.9861 28.48V19.552C82.9861 19.424 82.9941 19.328 83.0101 19.264C82.9781 18.48 82.8181 17.744 82.5301 17.056C82.2421 16.368 81.8501 15.768 81.3541 15.256C80.8581 14.744 80.2741 14.344 79.6021 14.056C78.9461 13.752 78.2181 13.6 77.4181 13.6C76.6021 13.6 75.8501 13.752 75.1621 14.056C74.4741 14.344 73.8821 14.752 73.3861 15.28C72.9061 15.808 72.5221 16.432 72.2341 17.152C71.9621 17.856 71.8261 18.616 71.8261 19.432V28.48C71.8261 28.848 71.7621 29.192 71.6341 29.512C71.5061 29.816 71.3221 30.088 71.0821 30.328C70.8581 30.552 70.5941 30.728 70.2901 30.856C69.9861 30.984 69.6501 31.048 69.2821 31.048C68.9301 31.048 68.5941 30.984 68.2741 30.856C67.9541 30.728 67.6661 30.552 67.4101 30.328C67.1701 30.088 66.9781 29.816 66.8341 29.512C66.6901 29.192 66.6181 28.848 66.6181 28.48V19.432C66.6181 17.896 66.8901 16.464 67.4341 15.136C67.9941 13.792 68.7541 12.624 69.7141 11.632C70.6901 10.624 71.8341 9.832 73.1461 9.256C74.4741 8.68 75.8981 8.392 77.4181 8.392C78.9541 8.392 80.3781 8.68 81.6901 9.256C83.0021 9.832 84.1381 10.624 85.0981 11.632C86.0581 12.624 86.8101 13.792 87.3541 15.136C87.9141 16.464 88.1941 17.896 88.1941 19.432V28.48ZM92.8348 2.776C92.8348 2.392 92.8988 2.04 93.0268 1.72C93.1708 1.384 93.3548 1.096 93.5788 0.855999C93.8188 0.599998 94.0988 0.407998 94.4188 0.279998C94.7388 0.135999 95.0828 0.0639992 95.4508 0.0639992C95.8348 0.0639992 96.1788 0.135999 96.4828 0.279998C96.8028 0.407998 97.0748 0.599998 97.2988 0.855999C97.5388 1.096 97.7228 1.384 97.8508 1.72C97.9788 2.04 98.0428 2.392 98.0428 2.776V10.264C98.9548 9.672 99.9308 9.216 100.971 8.896C102.027 8.56 103.131 8.392 104.283 8.392C105.867 8.392 107.347 8.696 108.723 9.304C110.115 9.896 111.323 10.712 112.347 11.752C113.387 12.776 114.203 13.984 114.795 15.376C115.403 16.768 115.707 18.256 115.707 19.84C115.707 21.408 115.403 22.888 114.795 24.28C114.203 25.672 113.387 26.888 112.347 27.928C111.323 28.968 110.115 29.792 108.723 30.4C107.347 30.992 105.867 31.288 104.283 31.288C102.715 31.288 101.235 30.992 99.8428 30.4C98.4508 29.792 97.2348 28.968 96.1948 27.928C95.1548 26.888 94.3308 25.672 93.7228 24.28C93.1308 22.888 92.8348 21.408 92.8348 19.84V2.776ZM98.0428 19.84C98.0428 20.688 98.2028 21.496 98.5228 22.264C98.8588 23.016 99.3068 23.68 99.8668 24.256C100.443 24.816 101.107 25.264 101.859 25.6C102.611 25.92 103.419 26.08 104.283 26.08C105.147 26.08 105.955 25.92 106.707 25.6C107.459 25.264 108.115 24.816 108.675 24.256C109.251 23.68 109.699 23.016 110.019 22.264C110.339 21.496 110.499 20.688 110.499 19.84C110.499 18.976 110.339 18.168 110.019 17.416C109.699 16.648 109.251 15.984 108.675 15.424C108.115 14.864 107.459 14.424 106.707 14.104C105.955 13.768 105.147 13.6 104.283 13.6C103.419 13.6 102.611 13.768 101.859 14.104C101.107 14.424 100.443 14.864 99.8668 15.424C99.3068 15.984 98.8588 16.648 98.5228 17.416C98.2028 18.168 98.0428 18.976 98.0428 19.84ZM123.614 22.168C123.822 22.76 124.11 23.304 124.478 23.8C124.862 24.28 125.302 24.696 125.798 25.048C126.294 25.384 126.838 25.648 127.43 25.84C128.022 26.016 128.646 26.104 129.302 26.104C130.95 26.104 132.246 25.672 133.19 24.808C133.51 24.584 133.822 24.424 134.126 24.328C134.43 24.216 134.718 24.16 134.99 24.16C135.438 24.16 135.838 24.28 136.19 24.52C136.542 24.744 136.83 25.04 137.054 25.408C137.214 25.664 137.326 25.944 137.39 26.248C137.47 26.536 137.486 26.832 137.438 27.136C137.406 27.44 137.31 27.744 137.15 28.048C137.006 28.336 136.782 28.6 136.478 28.84C136.126 29.16 135.726 29.472 135.278 29.776C134.83 30.064 134.31 30.32 133.718 30.544C133.142 30.768 132.486 30.944 131.75 31.072C131.03 31.216 130.214 31.288 129.302 31.288C127.718 31.288 126.23 30.992 124.838 30.4C123.446 29.792 122.23 28.968 121.19 27.928C120.15 26.888 119.326 25.68 118.718 24.304C118.11 22.912 117.806 21.424 117.806 19.84C117.806 18.256 118.11 16.768 118.718 15.376C119.326 13.984 120.15 12.776 121.19 11.752C122.23 10.712 123.446 9.896 124.838 9.304C126.23 8.696 127.718 8.392 129.302 8.392C130.87 8.392 132.342 8.688 133.718 9.28C135.11 9.872 136.326 10.68 137.366 11.704C138.422 12.712 139.254 13.904 139.862 15.28C140.486 16.656 140.806 18.128 140.822 19.696C140.822 20.432 140.582 21.032 140.102 21.496C139.638 21.944 139.022 22.168 138.254 22.168H123.614ZM135.47 17.848C135.294 17.192 135.014 16.6 134.63 16.072C134.262 15.544 133.814 15.096 133.286 14.728C132.758 14.36 132.166 14.08 131.51 13.888C130.854 13.696 130.158 13.6 129.422 13.6C128.686 13.6 127.99 13.704 127.334 13.912C126.694 14.104 126.11 14.392 125.582 14.776C125.07 15.144 124.63 15.592 124.262 16.12C123.894 16.632 123.622 17.208 123.446 17.848H135.47ZM149.077 28.432C149.077 28.784 149.013 29.12 148.885 29.44C148.757 29.76 148.573 30.032 148.333 30.256C148.109 30.48 147.845 30.664 147.541 30.808C147.237 30.936 146.909 31 146.557 31C146.189 31 145.837 30.936 145.501 30.808C145.181 30.664 144.901 30.48 144.661 30.256C144.421 30.032 144.229 29.76 144.085 29.44C143.941 29.12 143.869 28.784 143.869 28.432V20.68C143.869 19.032 144.181 17.48 144.805 16.024C145.445 14.568 146.309 13.296 147.397 12.208C148.485 11.12 149.757 10.264 151.213 9.64C152.669 9 154.213 8.68 155.845 8.68H155.893C156.757 8.68 157.421 8.928 157.885 9.424C158.365 9.904 158.605 10.52 158.605 11.272C158.605 11.64 158.533 11.984 158.389 12.304C158.245 12.624 158.045 12.904 157.789 13.144C157.549 13.368 157.261 13.552 156.925 13.696C156.605 13.824 156.261 13.888 155.893 13.888H155.845C154.933 13.888 154.061 14.064 153.229 14.416C152.413 14.768 151.701 15.248 151.093 15.856C150.485 16.464 149.997 17.176 149.629 17.992C149.261 18.808 149.077 19.68 149.077 20.608V28.432ZM166.515 28.432C166.515 28.784 166.451 29.12 166.323 29.44C166.195 29.76 166.011 30.032 165.771 30.256C165.547 30.48 165.283 30.664 164.979 30.808C164.675 30.936 164.347 31 163.995 31C163.627 31 163.275 30.936 162.939 30.808C162.619 30.664 162.339 30.48 162.099 30.256C161.859 30.032 161.667 29.76 161.523 29.44C161.379 29.12 161.307 28.784 161.307 28.432V20.68C161.307 19.032 161.619 17.48 162.243 16.024C162.883 14.568 163.747 13.296 164.835 12.208C165.923 11.12 167.195 10.264 168.651 9.64C170.107 9 171.651 8.68 173.283 8.68H173.331C174.195 8.68 174.859 8.928 175.323 9.424C175.803 9.904 176.043 10.52 176.043 11.272C176.043 11.64 175.971 11.984 175.827 12.304C175.683 12.624 175.483 12.904 175.227 13.144C174.987 13.368 174.699 13.552 174.363 13.696C174.043 13.824 173.699 13.888 173.331 13.888H173.283C172.371 13.888 171.499 14.064 170.667 14.416C169.851 14.768 169.139 15.248 168.531 15.856C167.923 16.464 167.435 17.176 167.067 17.992C166.699 18.808 166.515 19.68 166.515 20.608V28.432ZM184 20.248C184 21.064 184.152 21.832 184.456 22.552C184.76 23.256 185.176 23.872 185.704 24.4C186.232 24.912 186.856 25.32 187.576 25.624C188.296 25.912 189.064 26.056 189.88 26.056C190.696 26.056 191.456 25.904 192.16 25.6C192.88 25.28 193.496 24.856 194.008 24.328C194.536 23.784 194.952 23.152 195.256 22.432C195.56 21.712 195.712 20.936 195.712 20.104V11.272C195.712 10.92 195.784 10.592 195.928 10.288C196.072 9.968 196.264 9.688 196.504 9.448C196.744 9.208 197.024 9.024 197.344 8.896C197.68 8.752 198.024 8.68 198.376 8.68C198.744 8.68 199.08 8.752 199.384 8.896C199.688 9.024 199.952 9.208 200.176 9.448C200.416 9.688 200.6 9.968 200.728 10.288C200.856 10.592 200.92 10.92 200.92 11.272V20.2C200.92 21.512 200.704 22.76 200.272 23.944C199.84 25.112 199.248 26.168 198.496 27.112C197.744 28.056 196.848 28.864 195.808 29.536C194.768 30.208 193.64 30.688 192.424 30.976V36.496C192.424 36.864 192.352 37.208 192.208 37.528C192.08 37.848 191.896 38.12 191.656 38.344C191.416 38.584 191.136 38.768 190.816 38.896C190.512 39.04 190.184 39.112 189.832 39.112C189.08 39.112 188.456 38.864 187.96 38.368C187.464 37.872 187.216 37.248 187.216 36.496V30.952C186 30.648 184.88 30.16 183.856 29.488C182.832 28.816 181.944 28.008 181.192 27.064C180.44 26.12 179.848 25.064 179.416 23.896C179 22.728 178.792 21.496 178.792 20.2V11.272C178.792 10.92 178.856 10.592 178.984 10.288C179.128 9.968 179.312 9.688 179.536 9.448C179.776 9.208 180.056 9.024 180.376 8.896C180.696 8.752 181.032 8.68 181.384 8.68C181.736 8.68 182.072 8.752 182.392 8.896C182.712 9.024 182.992 9.208 183.232 9.448C183.472 9.688 183.656 9.968 183.784 10.288C183.928 10.592 184 10.92 184 11.272V20.248Z" fill="#7C7C7C"/>
<path d="M205.087 19.84C205.087 18.256 205.391 16.776 205.999 15.4C206.607 14.008 207.431 12.792 208.471 11.752C209.511 10.712 210.719 9.896 212.095 9.304C213.487 8.696 214.967 8.392 216.535 8.392C218.119 8.392 219.607 8.696 220.999 9.304C222.391 9.896 223.599 10.712 224.623 11.752C225.663 12.792 226.479 14.008 227.071 15.4C227.663 16.776 227.959 18.256 227.959 19.84C227.959 21.408 227.663 22.888 227.071 24.28C226.479 25.672 225.663 26.888 224.623 27.928C223.599 28.968 222.391 29.792 220.999 30.4C219.607 30.992 218.119 31.288 216.535 31.288C215.383 31.288 214.279 31.128 213.223 30.808C212.183 30.472 211.207 30.008 210.295 29.416V36.4C210.295 36.784 210.231 37.136 210.103 37.456C209.991 37.792 209.823 38.08 209.599 38.32C209.375 38.56 209.103 38.752 208.783 38.896C208.479 39.04 208.135 39.112 207.751 39.112C207.383 39.112 207.039 39.04 206.719 38.896C206.399 38.752 206.119 38.56 205.879 38.32C205.639 38.08 205.447 37.792 205.303 37.456C205.159 37.136 205.087 36.784 205.087 36.4V19.84ZM210.295 19.84C210.295 20.688 210.455 21.496 210.775 22.264C211.111 23.016 211.559 23.68 212.119 24.256C212.695 24.816 213.359 25.264 214.111 25.6C214.863 25.92 215.671 26.08 216.535 26.08C217.399 26.08 218.207 25.92 218.959 25.6C219.727 25.264 220.391 24.816 220.951 24.256C221.511 23.68 221.951 23.016 222.271 22.264C222.591 21.496 222.751 20.688 222.751 19.84C222.751 18.976 222.591 18.168 222.271 17.416C221.951 16.648 221.511 15.984 220.951 15.424C220.391 14.864 219.727 14.424 218.959 14.104C218.207 13.768 217.399 13.6 216.535 13.6C215.687 13.6 214.879 13.768 214.111 14.104C213.359 14.424 212.695 14.864 212.119 15.424C211.559 15.984 211.111 16.648 210.775 17.416C210.455 18.168 210.295 18.976 210.295 19.84ZM236.36 20.224C236.36 21.04 236.504 21.808 236.792 22.528C237.096 23.232 237.504 23.848 238.016 24.376C238.544 24.904 239.16 25.32 239.864 25.624C240.584 25.928 241.352 26.08 242.168 26.08C243 26.08 243.744 25.928 244.4 25.624C245.056 25.304 245.608 24.88 246.056 24.352C246.52 23.808 246.872 23.176 247.112 22.456C247.368 21.736 247.496 20.968 247.496 20.152V11.272C247.496 10.904 247.568 10.568 247.712 10.264C247.856 9.944 248.048 9.672 248.288 9.448C248.544 9.208 248.832 9.024 249.152 8.896C249.472 8.752 249.808 8.68 250.16 8.68C250.528 8.68 250.864 8.752 251.168 8.896C251.472 9.024 251.736 9.208 251.96 9.448C252.2 9.672 252.384 9.944 252.512 10.264C252.64 10.568 252.704 10.904 252.704 11.272V20.08C252.704 21.616 252.44 23.064 251.912 24.424C251.4 25.784 250.68 26.976 249.752 28C248.824 29.008 247.712 29.808 246.416 30.4C245.12 30.992 243.704 31.288 242.168 31.288C240.632 31.288 239.192 31 237.848 30.424C236.52 29.832 235.36 29.032 234.368 28.024C233.376 27.016 232.592 25.84 232.016 24.496C231.44 23.152 231.152 21.72 231.152 20.2V11.272C231.152 10.904 231.216 10.568 231.344 10.264C231.488 9.944 231.672 9.672 231.896 9.448C232.136 9.208 232.416 9.024 232.736 8.896C233.056 8.752 233.392 8.68 233.744 8.68C234.096 8.68 234.432 8.752 234.752 8.896C235.072 9.024 235.352 9.208 235.592 9.448C235.832 9.672 236.016 9.944 236.144 10.264C236.288 10.568 236.36 10.904 236.36 11.272V20.224ZM278.46 28.48C278.46 28.848 278.388 29.192 278.244 29.512C278.116 29.816 277.94 30.088 277.716 30.328C277.492 30.552 277.22 30.728 276.9 30.856C276.596 30.984 276.268 31.048 275.916 31.048C275.564 31.048 275.22 30.984 274.884 30.856C274.564 30.728 274.284 30.552 274.044 30.328C273.804 30.088 273.612 29.816 273.468 29.512C273.324 29.192 273.252 28.848 273.252 28.48V19.552C273.252 19.424 273.26 19.328 273.276 19.264C273.244 18.48 273.084 17.744 272.796 17.056C272.508 16.368 272.116 15.768 271.62 15.256C271.124 14.744 270.54 14.344 269.868 14.056C269.212 13.752 268.484 13.6 267.684 13.6C266.868 13.6 266.116 13.752 265.428 14.056C264.74 14.344 264.148 14.752 263.652 15.28C263.172 15.808 262.788 16.432 262.5 17.152C262.228 17.856 262.092 18.616 262.092 19.432V28.48C262.092 28.848 262.028 29.192 261.9 29.512C261.772 29.816 261.588 30.088 261.348 30.328C261.124 30.552 260.86 30.728 260.556 30.856C260.252 30.984 259.916 31.048 259.548 31.048C259.196 31.048 258.86 30.984 258.54 30.856C258.22 30.728 257.932 30.552 257.676 30.328C257.436 30.088 257.244 29.816 257.1 29.512C256.956 29.192 256.884 28.848 256.884 28.48V19.432C256.884 17.896 257.156 16.464 257.7 15.136C258.26 13.792 259.02 12.624 259.98 11.632C260.956 10.624 262.1 9.832 263.412 9.256C264.74 8.68 266.164 8.392 267.684 8.392C269.22 8.392 270.644 8.68 271.956 9.256C273.268 9.832 274.404 10.624 275.364 11.632C276.324 12.624 277.076 13.792 277.62 15.136C278.18 16.464 278.46 17.896 278.46 19.432V28.48ZM286.724 19.84C286.724 20.592 286.876 21.336 287.18 22.072C287.5 22.808 287.924 23.472 288.452 24.064C288.996 24.64 289.628 25.112 290.348 25.48C291.068 25.848 291.844 26.04 292.676 26.056C293.54 26.056 294.3 25.952 294.956 25.744C295.628 25.52 296.3 25.128 296.972 24.568C297.292 24.296 297.644 24.048 298.028 23.824C298.428 23.584 298.86 23.464 299.324 23.464C299.596 23.464 299.884 23.528 300.188 23.656C300.492 23.768 300.804 23.96 301.124 24.232C301.396 24.472 301.596 24.76 301.724 25.096C301.868 25.416 301.932 25.76 301.916 26.128C301.916 26.48 301.836 26.832 301.676 27.184C301.532 27.536 301.308 27.872 301.004 28.192C300.012 29.2 298.828 29.968 297.452 30.496C296.092 31.024 294.66 31.288 293.156 31.288C291.556 31.288 290.052 31 288.644 30.424C287.236 29.832 286.004 29.024 284.948 28C283.892 26.976 283.06 25.776 282.452 24.4C281.844 23.008 281.54 21.512 281.54 19.912C281.556 19.896 281.564 19.88 281.564 19.864H281.54C281.54 18.264 281.844 16.768 282.452 15.376C283.06 13.968 283.892 12.752 284.948 11.728C286.004 10.688 287.236 9.872 288.644 9.28C290.052 8.688 291.556 8.392 293.156 8.392C294.66 8.392 296.092 8.648 297.452 9.16C298.828 9.656 300.012 10.408 301.004 11.416C301.308 11.72 301.54 12.056 301.7 12.424C301.86 12.776 301.94 13.136 301.94 13.504C301.956 13.856 301.892 14.2 301.748 14.536C301.604 14.856 301.388 15.144 301.1 15.4C300.78 15.672 300.476 15.864 300.188 15.976C299.9 16.088 299.62 16.144 299.348 16.144C298.884 16.144 298.452 16.032 298.052 15.808C297.668 15.568 297.308 15.312 296.972 15.04C296.3 14.528 295.636 14.16 294.98 13.936C294.324 13.712 293.636 13.6 292.916 13.6C292.1 13.6 291.316 13.768 290.564 14.104C289.812 14.44 289.156 14.896 288.596 15.472C288.036 16.048 287.588 16.712 287.252 17.464C286.916 18.216 286.748 19 286.748 19.816L286.724 19.84ZM327.411 28.456C327.411 28.808 327.339 29.144 327.195 29.464C327.067 29.768 326.883 30.04 326.643 30.28C326.403 30.504 326.123 30.68 325.803 30.808C325.499 30.936 325.163 31 324.795 31C324.443 31 324.107 30.936 323.787 30.808C323.483 30.68 323.211 30.504 322.971 30.28C322.731 30.04 322.539 29.768 322.395 29.464C322.267 29.144 322.203 28.808 322.203 28.456V19.6C322.203 19.552 322.203 19.504 322.203 19.456C322.203 19.392 322.211 19.336 322.227 19.288C322.211 18.488 322.067 17.744 321.795 17.056C321.523 16.368 321.147 15.768 320.667 15.256C320.203 14.744 319.643 14.344 318.987 14.056C318.331 13.752 317.603 13.6 316.803 13.6C315.987 13.6 315.227 13.744 314.523 14.032C313.819 14.304 313.211 14.696 312.699 15.208C312.187 15.704 311.779 16.304 311.475 17.008C311.187 17.696 311.043 18.456 311.043 19.288V28.408C311.043 28.76 310.971 29.096 310.827 29.416C310.699 29.736 310.515 30.016 310.275 30.256C310.051 30.48 309.779 30.664 309.459 30.808C309.155 30.936 308.819 31 308.451 31C308.083 31 307.739 30.936 307.419 30.808C307.099 30.664 306.819 30.48 306.579 30.256C306.355 30.016 306.171 29.736 306.027 29.416C305.899 29.096 305.835 28.76 305.835 28.408V2.704C305.835 2.336 305.899 1.992 306.027 1.672C306.171 1.352 306.363 1.072 306.603 0.831998C306.843 0.591998 307.123 0.407998 307.443 0.279998C307.763 0.135999 308.099 0.0639992 308.451 0.0639992C308.819 0.0639992 309.155 0.135999 309.459 0.279998C309.779 0.407998 310.051 0.591998 310.275 0.831998C310.515 1.072 310.699 1.352 310.827 1.672C310.971 1.992 311.043 2.336 311.043 2.704V10.528C311.875 9.856 312.771 9.336 313.731 8.968C314.707 8.584 315.731 8.392 316.803 8.392C318.323 8.392 319.731 8.688 321.027 9.28C322.323 9.856 323.443 10.648 324.387 11.656C325.331 12.648 326.067 13.816 326.595 15.16C327.139 16.504 327.411 17.936 327.411 19.456V28.456Z" fill="#059669"/>
</svg>
