<svg width="326" height="353" viewBox="0 0 326 353" fill="none" xmlns="http://www.w3.org/2000/svg">
<path d="M0.699921 327.4L-3.05176e-05 277.98C-3.05176e-05 250.09 25.65 227 57.29 227H252.32C294.94 226 325.35 259.3 325.06 293.13L324.85 317.96C324.85 317.96 314.415 338.546 258.074 348.01C235.098 351.869 204.451 350.734 163.824 350.51C113.771 350.234 89.0226 354.283 64.5737 350.51C20.5138 343.71 0.699921 327.4 0.699921 327.4Z" fill="#059669"/>
<path d="M43.5 69.01H45.5V98.01H43.5V69.01Z" fill="#FFFBF7"/>
<path d="M199.5 101.33V68.99C199.5 51.36 192.52 33.68 179.37 20.22C166.22 6.76003 148.58 0 131.35 0H91.26C83.47 0 75.69 3.01002 69.75 8.96002C63.8 14.91 60.95 23.62 60.95 31.42C60.94 31.42 142.5 107.16 199.5 101.33Z" fill="black"/>
<path d="M37.9601 103.39C41.8101 86.39 54.1401 54.01 60.6901 31.01H118.78C123.03 31.01 126.84 32.32 130.08 35.56C133.32 38.81 134.5 42.74 134.5 46.99V102.34L158.5 101.46V78.07C158.5 71.53 163.82 66.01 170.36 66.01H170.65C177.19 66.01 181.51 71.54 181.51 78.07V101.09L198.64 101.34L199.14 227.82C170.38 254.67 123.15 251.78 96.3601 227.51L96.1201 182.84L68.3501 182.96C64.3601 182.96 60.3801 181.09 57.3301 178.06C54.2801 175.02 53.2701 159.93 53.2401 155.94C53.5001 144.61 53.5202 132.98 53.5502 121.41C54.0502 117.3 32.6701 116.22 37.9601 103.39Z" fill="#E1AC7B"/>
<path d="M44.5 69.01H162.21L160.37 72.01H94.5V88.46C94.5 95.34 88.9901 102.01 82.0601 102.01H66.23C59.62 102.01 52.5 95.56 52.5 88.46V72.01H44.5V69.01ZM55.5 88.46C55.5 93.91 60.96 99.01 66.23 99.01H82.0601C87.4701 99.01 91.5 93.82 91.5 88.46V72.01H55.5V88.46Z" fill="#ECFBF6"/>
<path d="M53.2397 155.01H75.4797C80.8097 155.01 85.1398 150.85 85.1398 145.51C85.1398 140.17 80.8097 136.01 75.4797 136.01H53.3998L53.5098 124.01H64.9298H85.4998H120.86C124.78 124.01 127.86 121.46 130.84 118.47C133.83 115.48 134.49 110.51 134.49 106.59V73.01H158.49V151.71C158.49 160.57 155.17 170.77 148.4 177.53C141.64 184.29 132.83 189.01 123.97 189.01H69.3998C53.6198 188.01 53.5398 171.96 53.1598 164.54L53.2397 155.01Z" fill="black"/>
</svg>
