<svg width="149" height="48" viewBox="0 0 149 48" fill="none" xmlns="http://www.w3.org/2000/svg">
<path fill-rule="evenodd" clip-rule="evenodd" d="M37.7669 1.05596C36.359 -0.351988 34.0762 -0.351988 32.668 1.05596L28.5892 5.13494C26.0549 7.66931 21.9459 7.66931 19.4115 5.13494L15.8424 1.56585C14.4345 0.157896 12.1517 0.157896 10.7437 1.56585C9.33576 2.97384 9.33576 5.25661 10.7437 6.66456L14.3128 10.2337C19.6631 15.584 28.3377 15.584 33.688 10.2337L37.7669 6.15468C39.1747 4.74672 39.1747 2.46395 37.7669 1.05596Z" fill="#7C7C7C"/>
<path fill-rule="evenodd" clip-rule="evenodd" d="M10.2337 46.9441C11.6417 48.352 13.9245 48.352 15.3324 46.9441L19.4114 42.8652C21.9457 40.331 26.0547 40.331 28.5891 42.8652L32.1581 46.4343C33.5663 47.8421 35.8488 47.8421 37.257 46.4343C38.6648 45.0264 38.6648 42.7436 37.257 41.3354L33.6879 37.7664C28.3376 32.4161 19.663 32.4161 14.3127 37.7664L10.2337 41.8453C8.82574 43.2535 8.82574 45.5363 10.2337 46.9441Z" fill="#7C7C7C"/>
<path fill-rule="evenodd" clip-rule="evenodd" d="M1.05596 37.7664C-0.351988 36.3586 -0.351988 34.0758 1.05596 32.6676L5.13494 28.5887C7.66931 26.0544 7.66931 21.9453 5.13494 19.4111L1.56585 15.8419C0.157897 14.434 0.157897 12.1512 1.56585 10.7432C2.97384 9.33527 5.25661 9.33527 6.66456 10.7432L10.2337 14.3123C15.584 19.6626 15.584 28.3372 10.2337 33.6876L6.15471 37.7664C4.74672 39.1743 2.46395 39.1743 1.05596 37.7664Z" fill="#059669"/>
<path d="M35.3921 23.8721C35.3921 24.4737 35.5137 25.0689 35.7569 25.6577C36.0129 26.2465 36.3521 26.7777 36.7745 27.2513C37.2097 27.7121 37.7153 28.0897 38.2913 28.3841C38.8673 28.6785 39.4881 28.8321 40.1537 28.8449C40.8449 28.8449 41.4529 28.7617 41.9777 28.5953C42.5153 28.4161 43.0529 28.1025 43.5905 27.6545C43.8465 27.4369 44.1281 27.2385 44.4353 27.0593C44.7553 26.8673 45.1009 26.7713 45.4721 26.7713C45.6897 26.7713 45.9201 26.8225 46.1633 26.9249C46.4065 27.0145 46.6561 27.1681 46.9121 27.3857C47.1297 27.5777 47.2897 27.8081 47.3921 28.0769C47.5073 28.3329 47.5585 28.6081 47.5457 28.9025C47.5457 29.1841 47.4817 29.4657 47.3537 29.7473C47.2385 30.0289 47.0593 30.2977 46.8161 30.5537C46.0225 31.3601 45.0753 31.9745 43.9745 32.3969C42.8865 32.8193 41.7409 33.0305 40.5377 33.0305C39.2577 33.0305 38.0545 32.8001 36.9281 32.3393C35.8017 31.8657 34.8161 31.2193 33.9713 30.4001C33.1265 29.5809 32.4609 28.6209 31.9745 27.5201C31.4881 26.4065 31.2449 25.2097 31.2449 23.9297C31.2577 23.9169 31.2641 23.9041 31.2641 23.8913H31.2449C31.2449 22.6113 31.4881 21.4145 31.9745 20.3009C32.4609 19.1745 33.1265 18.2017 33.9713 17.3825C34.8161 16.5505 35.8017 15.8977 36.9281 15.4241C38.0545 14.9505 39.2577 14.7137 40.5377 14.7137C41.7409 14.7137 42.8865 14.9185 43.9745 15.3281C45.0753 15.7249 46.0225 16.3265 46.8161 17.1329C47.0593 17.3761 47.2449 17.6449 47.3729 17.9393C47.5009 18.2209 47.5649 18.5089 47.5649 18.8033C47.5777 19.0849 47.5265 19.3601 47.4113 19.6289C47.2961 19.8849 47.1233 20.1153 46.8929 20.3201C46.6369 20.5377 46.3937 20.6913 46.1633 20.7809C45.9329 20.8705 45.7089 20.9153 45.4913 20.9153C45.1201 20.9153 44.7745 20.8257 44.4545 20.6465C44.1473 20.4545 43.8593 20.2497 43.5905 20.0321C43.0529 19.6225 42.5217 19.3281 41.9969 19.1489C41.4721 18.9697 40.9217 18.8801 40.3457 18.8801C39.6929 18.8801 39.0657 19.0145 38.4641 19.2833C37.8625 19.5521 37.3377 19.9169 36.8897 20.3777C36.4417 20.8385 36.0833 21.3697 35.8145 21.9713C35.5457 22.5729 35.4113 23.2001 35.4113 23.8529L35.3921 23.8721Z" fill="#7C7C7C"/>
<path d="M50.2196 23.8721C50.2196 22.6049 50.4628 21.4209 50.9492 20.3201C51.4356 19.2065 52.0948 18.2337 52.9268 17.4017C53.7588 16.5697 54.7252 15.9169 55.826 15.4433C56.9396 14.9569 58.1236 14.7137 59.378 14.7137C60.6452 14.7137 61.8356 14.9569 62.9492 15.4433C64.0628 15.9169 65.0292 16.5697 65.8484 17.4017C66.6804 18.2337 67.3332 19.2065 67.8068 20.3201C68.2804 21.4209 68.5172 22.6049 68.5172 23.8721C68.5172 25.1265 68.2804 26.3105 67.8068 27.4241C67.3332 28.5377 66.6804 29.5105 65.8484 30.3425C65.0292 31.1745 64.0628 31.8337 62.9492 32.3201C61.8356 32.7937 60.6452 33.0305 59.378 33.0305C58.4564 33.0305 57.5732 32.9025 56.7284 32.6465C55.8964 32.3777 55.1156 32.0065 54.386 31.5329V37.1201C54.386 37.4273 54.3348 37.7089 54.2324 37.9649C54.1428 38.2337 54.0084 38.4641 53.8292 38.6561C53.65 38.8481 53.4324 39.0017 53.1764 39.1169C52.9332 39.2321 52.658 39.2897 52.3508 39.2897C52.0564 39.2897 51.7812 39.2321 51.5252 39.1169C51.2692 39.0017 51.0452 38.8481 50.8532 38.6561C50.6612 38.4641 50.5076 38.2337 50.3924 37.9649C50.2772 37.7089 50.2196 37.4273 50.2196 37.1201V23.8721ZM54.386 23.8721C54.386 24.5505 54.514 25.1969 54.77 25.8113C55.0388 26.4129 55.3972 26.9441 55.8452 27.4049C56.306 27.8529 56.8372 28.2113 57.4388 28.4801C58.0404 28.7361 58.6868 28.8641 59.378 28.8641C60.0692 28.8641 60.7156 28.7361 61.3172 28.4801C61.9316 28.2113 62.4628 27.8529 62.9108 27.4049C63.3588 26.9441 63.7108 26.4129 63.9668 25.8113C64.2228 25.1969 64.3508 24.5505 64.3508 23.8721C64.3508 23.1809 64.2228 22.5345 63.9668 21.9329C63.7108 21.3185 63.3588 20.7873 62.9108 20.3393C62.4628 19.8913 61.9316 19.5393 61.3172 19.2833C60.7156 19.0145 60.0692 18.8801 59.378 18.8801C58.6996 18.8801 58.0532 19.0145 57.4388 19.2833C56.8372 19.5393 56.306 19.8913 55.8452 20.3393C55.3972 20.7873 55.0388 21.3185 54.77 21.9329C54.514 22.5345 54.386 23.1809 54.386 23.8721Z" fill="#059669"/>
<path d="M75.2378 24.1793C75.2378 24.8321 75.353 25.4465 75.5834 26.0225C75.8266 26.5857 76.153 27.0785 76.5626 27.5009C76.985 27.9233 77.4778 28.2561 78.041 28.4993C78.617 28.7425 79.2314 28.8641 79.8842 28.8641C80.5498 28.8641 81.145 28.7425 81.6698 28.4993C82.1946 28.2433 82.6362 27.9041 82.9946 27.4817C83.3658 27.0465 83.6474 26.5409 83.8394 25.9649C84.0442 25.3889 84.1466 24.7745 84.1466 24.1217V17.0177C84.1466 16.7233 84.2042 16.4545 84.3194 16.2113C84.4346 15.9553 84.5882 15.7377 84.7802 15.5585C84.985 15.3665 85.2154 15.2193 85.4714 15.1169C85.7274 15.0017 85.9962 14.9441 86.2778 14.9441C86.5722 14.9441 86.841 15.0017 87.0842 15.1169C87.3274 15.2193 87.5386 15.3665 87.7178 15.5585C87.9098 15.7377 88.057 15.9553 88.1594 16.2113C88.2618 16.4545 88.313 16.7233 88.313 17.0177V24.0641C88.313 25.2929 88.1018 26.4513 87.6794 27.5393C87.2698 28.6273 86.6938 29.5809 85.9514 30.4001C85.209 31.2065 84.3194 31.8465 83.2826 32.3201C82.2458 32.7937 81.113 33.0305 79.8842 33.0305C78.6554 33.0305 77.5034 32.8001 76.4282 32.3393C75.3658 31.8657 74.4378 31.2257 73.6442 30.4193C72.8506 29.6129 72.2234 28.6721 71.7626 27.5969C71.3018 26.5217 71.0714 25.3761 71.0714 24.1601V17.0177C71.0714 16.7233 71.1226 16.4545 71.225 16.2113C71.3402 15.9553 71.4874 15.7377 71.6666 15.5585C71.8586 15.3665 72.0826 15.2193 72.3386 15.1169C72.5946 15.0017 72.8634 14.9441 73.145 14.9441C73.4266 14.9441 73.6954 15.0017 73.9514 15.1169C74.2074 15.2193 74.4314 15.3665 74.6234 15.5585C74.8154 15.7377 74.9626 15.9553 75.065 16.2113C75.1802 16.4545 75.2378 16.7233 75.2378 17.0177V24.1793Z" fill="#059669"/>
<path d="M108.918 30.7841C108.918 31.0785 108.86 31.3537 108.745 31.6097C108.643 31.8529 108.502 32.0705 108.323 32.2625C108.144 32.4417 107.926 32.5825 107.67 32.6849C107.427 32.7873 107.164 32.8385 106.883 32.8385C106.601 32.8385 106.326 32.7873 106.057 32.6849C105.801 32.5825 105.577 32.4417 105.385 32.2625C105.193 32.0705 105.04 31.8529 104.924 31.6097C104.809 31.3537 104.752 31.0785 104.752 30.7841V23.6417C104.752 23.5393 104.758 23.4625 104.771 23.4113C104.745 22.7841 104.617 22.1953 104.387 21.6449C104.156 21.0945 103.843 20.6145 103.446 20.2049C103.049 19.7953 102.582 19.4753 102.044 19.2449C101.52 19.0017 100.937 18.8801 100.297 18.8801C99.6443 18.8801 99.0427 19.0017 98.4923 19.2449C97.9419 19.4753 97.4683 19.8017 97.0715 20.2241C96.6875 20.6465 96.3803 21.1457 96.1499 21.7217C95.9323 22.2849 95.8235 22.8929 95.8235 23.5457V30.7841C95.8235 31.0785 95.7723 31.3537 95.6699 31.6097C95.5675 31.8529 95.4203 32.0705 95.2283 32.2625C95.0491 32.4417 94.8379 32.5825 94.5947 32.6849C94.3515 32.7873 94.0827 32.8385 93.7883 32.8385C93.5067 32.8385 93.2379 32.7873 92.9819 32.6849C92.7259 32.5825 92.4955 32.4417 92.2907 32.2625C92.0987 32.0705 91.9451 31.8529 91.8299 31.6097C91.7147 31.3537 91.6571 31.0785 91.6571 30.7841V23.5457C91.6571 22.3169 91.8747 21.1713 92.3099 20.1089C92.7579 19.0337 93.3659 18.0993 94.1339 17.3057C94.9147 16.4993 95.8299 15.8657 96.8795 15.4049C97.9419 14.9441 99.0811 14.7137 100.297 14.7137C101.526 14.7137 102.665 14.9441 103.715 15.4049C104.764 15.8657 105.673 16.4993 106.441 17.3057C107.209 18.0993 107.811 19.0337 108.246 20.1089C108.694 21.1713 108.918 22.3169 108.918 23.5457V30.7841Z" fill="#059669"/>
<path d="M115.53 23.8721C115.53 24.4737 115.651 25.0689 115.894 25.6577C116.15 26.2465 116.49 26.7777 116.912 27.2513C117.347 27.7121 117.853 28.0897 118.429 28.3841C119.005 28.6785 119.626 28.8321 120.291 28.8449C120.982 28.8449 121.59 28.7617 122.115 28.5953C122.653 28.4161 123.19 28.1025 123.728 27.6545C123.984 27.4369 124.266 27.2385 124.573 27.0593C124.893 26.8673 125.238 26.7713 125.61 26.7713C125.827 26.7713 126.058 26.8225 126.301 26.9249C126.544 27.0145 126.794 27.1681 127.05 27.3857C127.267 27.5777 127.427 27.8081 127.53 28.0769C127.645 28.3329 127.696 28.6081 127.683 28.9025C127.683 29.1841 127.619 29.4657 127.491 29.7473C127.376 30.0289 127.197 30.2977 126.954 30.5537C126.16 31.3601 125.213 31.9745 124.112 32.3969C123.024 32.8193 121.878 33.0305 120.675 33.0305C119.395 33.0305 118.192 32.8001 117.066 32.3393C115.939 31.8657 114.954 31.2193 114.109 30.4001C113.264 29.5809 112.598 28.6209 112.112 27.5201C111.626 26.4065 111.382 25.2097 111.382 23.9297C111.395 23.9169 111.402 23.9041 111.402 23.8913H111.382C111.382 22.6113 111.626 21.4145 112.112 20.3009C112.598 19.1745 113.264 18.2017 114.109 17.3825C114.954 16.5505 115.939 15.8977 117.066 15.4241C118.192 14.9505 119.395 14.7137 120.675 14.7137C121.878 14.7137 123.024 14.9185 124.112 15.3281C125.213 15.7249 126.16 16.3265 126.954 17.1329C127.197 17.3761 127.382 17.6449 127.51 17.9393C127.638 18.2209 127.702 18.5089 127.702 18.8033C127.715 19.0849 127.664 19.3601 127.549 19.6289C127.434 19.8849 127.261 20.1153 127.03 20.3201C126.774 20.5377 126.531 20.6913 126.301 20.7809C126.07 20.8705 125.846 20.9153 125.629 20.9153C125.258 20.9153 124.912 20.8257 124.592 20.6465C124.285 20.4545 123.997 20.2497 123.728 20.0321C123.19 19.6225 122.659 19.3281 122.134 19.1489C121.61 18.9697 121.059 18.8801 120.483 18.8801C119.83 18.8801 119.203 19.0145 118.602 19.2833C118 19.5521 117.475 19.9169 117.027 20.3777C116.579 20.8385 116.221 21.3697 115.952 21.9713C115.683 22.5729 115.549 23.2001 115.549 23.8529L115.53 23.8721Z" fill="#059669"/>
<path d="M148.079 30.7649C148.079 31.0465 148.021 31.3153 147.906 31.5713C147.804 31.8145 147.656 32.0321 147.464 32.2241C147.272 32.4033 147.048 32.5441 146.792 32.6465C146.549 32.7489 146.28 32.8001 145.986 32.8001C145.704 32.8001 145.436 32.7489 145.18 32.6465C144.936 32.5441 144.719 32.4033 144.527 32.2241C144.335 32.0321 144.181 31.8145 144.066 31.5713C143.964 31.3153 143.912 31.0465 143.912 30.7649V23.6801C143.912 23.6417 143.912 23.6033 143.912 23.5649C143.912 23.5137 143.919 23.4689 143.932 23.4305C143.919 22.7905 143.804 22.1953 143.586 21.6449C143.368 21.0945 143.068 20.6145 142.684 20.2049C142.312 19.7953 141.864 19.4753 141.34 19.2449C140.815 19.0017 140.232 18.8801 139.592 18.8801C138.94 18.8801 138.332 18.9953 137.768 19.2257C137.205 19.4433 136.719 19.7569 136.309 20.1665C135.9 20.5633 135.573 21.0433 135.33 21.6065C135.1 22.1569 134.984 22.7649 134.984 23.4305V30.7265C134.984 31.0081 134.927 31.2769 134.812 31.5329C134.709 31.7889 134.562 32.0129 134.37 32.2049C134.191 32.3841 133.973 32.5313 133.717 32.6465C133.474 32.7489 133.205 32.8001 132.911 32.8001C132.616 32.8001 132.341 32.7489 132.085 32.6465C131.829 32.5313 131.605 32.3841 131.413 32.2049C131.234 32.0129 131.087 31.7889 130.972 31.5329C130.869 31.2769 130.818 31.0081 130.818 30.7265V10.1633C130.818 9.86887 130.869 9.59367 130.972 9.33767C131.087 9.08167 131.24 8.85767 131.432 8.66567C131.624 8.47367 131.848 8.32647 132.104 8.22407C132.36 8.10887 132.629 8.05127 132.911 8.05127C133.205 8.05127 133.474 8.10887 133.717 8.22407C133.973 8.32647 134.191 8.47367 134.37 8.66567C134.562 8.85767 134.709 9.08167 134.812 9.33767C134.927 9.59367 134.984 9.86887 134.984 10.1633V16.4225C135.65 15.8849 136.367 15.4689 137.135 15.1745C137.916 14.8673 138.735 14.7137 139.592 14.7137C140.808 14.7137 141.935 14.9505 142.972 15.4241C144.008 15.8849 144.904 16.5185 145.66 17.3249C146.415 18.1185 147.004 19.0529 147.426 20.1281C147.861 21.2033 148.079 22.3489 148.079 23.5649V30.7649Z" fill="#059669"/>
</svg>
