<svg width="109" height="109" viewBox="0 0 109 109" fill="none" xmlns="http://www.w3.org/2000/svg">
<circle cx="54.5" cy="54.5" r="54.5" fill="#ECFBF6"/>
<path d="M54.112 52.24C55.0257 50.2321 56.3261 48.4239 57.9387 46.9187C59.5514 45.4134 61.4448 44.2406 63.5108 43.4673C65.5768 42.6939 67.775 42.3352 69.9796 42.4115C72.1843 42.4878 74.3524 42.9976 76.36 43.912C78.3679 44.8257 80.176 46.1261 81.6813 47.7387C83.1865 49.3514 84.3593 51.2448 85.1327 53.3108C85.906 55.3768 86.2648 57.575 86.1885 59.7796C86.1122 61.9843 85.6023 64.1524 84.688 66.16C83.3573 69.0977 81.2069 71.5889 78.495 73.3344C75.7831 75.0799 72.625 76.0055 69.4 76C62.92 76 56.992 72.256 54.208 66.4H31V61.6C31.144 58.864 33.016 56.632 36.616 54.832C40.216 53.032 44.728 52.096 50.2 52C51.568 52 52.864 52.12 54.112 52.24ZM50.2 28C52.888 28.072 55.144 29.008 56.944 30.808C58.744 32.608 59.632 34.864 59.632 37.6C59.632 40.336 58.744 42.592 56.944 44.392C55.144 46.192 52.888 47.08 50.2 47.08C47.512 47.08 45.256 46.192 43.456 44.392C41.656 42.592 40.768 40.336 40.768 37.6C40.768 34.864 41.656 32.608 43.456 30.808C45.256 29.008 47.512 28.072 50.2 28ZM69.4 71.2C72.5826 71.2 75.6348 69.9357 77.8853 67.6853C80.1357 65.4348 81.4 62.3826 81.4 59.2C81.4 56.0174 80.1357 52.9651 77.8853 50.7147C75.6348 48.4643 72.5826 47.2 69.4 47.2C66.2174 47.2 63.1651 48.4643 60.9147 50.7147C58.6643 52.9651 57.4 56.0174 57.4 59.2C57.4 62.3826 58.6643 65.4348 60.9147 67.6853C63.1651 69.9357 66.2174 71.2 69.4 71.2ZM67 52H70.6V58.768L76.456 62.152L74.656 65.272L67 60.856V52Z" fill="#059669"/>
</svg>
