<svg width="27" height="24" viewBox="0 0 27 24" fill="none" xmlns="http://www.w3.org/2000/svg">
<path fill-rule="evenodd" clip-rule="evenodd" d="M8.04471 6.37979C8.71418 7.04926 8.71418 8.13468 8.04471 8.80415L4.84873 12.0001L8.04471 15.1961C8.71418 15.8656 8.71418 16.951 8.04471 17.6205C7.37524 18.29 6.28982 18.29 5.62035 17.6205L0 12.0001L5.62035 6.37979C6.28982 5.71032 7.37524 5.71032 8.04471 6.37979Z" fill="white"/>
<path fill-rule="evenodd" clip-rule="evenodd" d="M2.17944 1.71429C2.17944 0.767512 2.94696 0 3.89373 0H24.4652C25.4119 0 26.1794 0.767512 26.1794 1.71429C26.1794 2.66106 25.4119 3.42857 24.4652 3.42857H3.89373C2.94696 3.42857 2.17944 2.66106 2.17944 1.71429Z" fill="white"/>
<path fill-rule="evenodd" clip-rule="evenodd" d="M9.52637 11.9999C9.52637 11.0532 10.2939 10.2856 11.2407 10.2856H24.4651C25.4119 10.2856 26.1794 11.0532 26.1794 11.9999C26.1794 12.9467 25.4119 13.7142 24.4651 13.7142H11.2407C10.2939 13.7142 9.52637 12.9467 9.52637 11.9999Z" fill="white"/>
<path fill-rule="evenodd" clip-rule="evenodd" d="M2.17944 22.2858C2.17944 21.339 2.94696 20.5715 3.89373 20.5715H24.4652C25.4119 20.5715 26.1794 21.339 26.1794 22.2858C26.1794 23.2326 25.4119 24.0001 24.4652 24.0001H3.89373C2.94696 24.0001 2.17944 23.2326 2.17944 22.2858Z" fill="white"/>
</svg>
