<svg width="55" height="55" viewBox="0 0 55 55" fill="none" xmlns="http://www.w3.org/2000/svg">
<circle cx="27.5" cy="27.5" r="27.5" fill="#ECFBF6"/>
<path d="M40.4079 25.3162H39.3745V25.263H27.8287V30.3944H35.0788C34.0211 33.3816 31.1789 35.5259 27.8287 35.5259C23.5779 35.5259 20.1315 32.0795 20.1315 27.8287C20.1315 23.5779 23.5779 20.1315 27.8287 20.1315C29.7908 20.1315 31.576 20.8717 32.9352 22.0808L36.5638 18.4522C34.2726 16.3169 31.2078 15 27.8287 15C20.7441 15 15 20.7441 15 27.8287C15 34.9133 20.7441 40.6574 27.8287 40.6574C34.9133 40.6574 40.6574 34.9133 40.6574 27.8287C40.6574 26.9685 40.5689 26.1289 40.4079 25.3162Z" fill="#FFC107"/>
<path d="M16.4795 21.8576L20.6944 24.9487C21.8348 22.1251 24.5969 20.1315 27.829 20.1315C29.7912 20.1315 31.5763 20.8717 32.9355 22.0808L36.5641 18.4522C34.2729 16.3169 31.2081 15 27.829 15C22.9015 15 18.6283 17.7819 16.4795 21.8576Z" fill="#FF3D00"/>
<path d="M27.829 40.6573C31.1426 40.6573 34.1535 39.3892 36.43 37.3269L32.4595 33.9671C31.1282 34.9795 29.5015 35.5271 27.829 35.5258C24.4922 35.5258 21.659 33.3982 20.5916 30.429L16.4082 33.6522C18.5314 37.8067 22.8431 40.6573 27.829 40.6573Z" fill="#4CAF50"/>
<path d="M40.4078 25.3162H39.3744V25.2629H27.8286V30.3944H35.0788C34.5728 31.8161 33.6614 33.0584 32.4572 33.9679L32.4591 33.9666L36.4296 37.3264C36.1487 37.5817 40.6573 34.243 40.6573 27.8287C40.6573 26.9685 40.5688 26.1289 40.4078 25.3162Z" fill="#1976D2"/>
</svg>
