<svg width="438" height="440" viewBox="0 0 438 440" fill="none" xmlns="http://www.w3.org/2000/svg">
<path d="M142 0H296C374.424 0 438 63.5756 438 142V296C438 374.424 374.424 438 296 438H142C63.5756 438 0 374.424 0 296V142C0 63.5756 63.5756 0 142 0Z" fill="#F1F1F1"/>
<path d="M49.7323 119.125C49.7323 120.003 49.5546 120.873 49.1994 121.733C48.8254 122.593 48.3299 123.369 47.7128 124.061C47.0771 124.734 46.3385 125.286 45.4971 125.716C44.6556 126.146 43.7488 126.37 42.7765 126.389C41.7667 126.389 40.8786 126.267 40.1119 126.024C39.3266 125.762 38.5413 125.304 37.7559 124.65C37.382 124.332 36.9706 124.042 36.5219 123.78C36.0544 123.5 35.5495 123.36 35.0073 123.36C34.6894 123.36 34.3528 123.435 33.9976 123.584C33.6423 123.715 33.2777 123.939 32.9037 124.257C32.5858 124.538 32.3521 124.874 32.2025 125.267C32.0342 125.641 31.9595 126.043 31.9782 126.473C31.9782 126.884 32.0716 127.296 32.2586 127.707C32.4269 128.118 32.6887 128.511 33.044 128.885C34.2033 130.063 35.5869 130.961 37.195 131.578C38.7844 132.195 40.4579 132.503 42.2155 132.503C44.0853 132.503 45.843 132.167 47.4885 131.494C49.1339 130.802 50.5737 129.857 51.8078 128.661C53.0419 127.464 54.0142 126.062 54.7247 124.454C55.4353 122.827 55.7905 121.079 55.7905 119.209C55.7718 119.19 55.7625 119.171 55.7625 119.153H55.7905C55.7905 117.283 55.4353 115.534 54.7247 113.908C54.0142 112.262 53.0419 110.841 51.8078 109.644C50.5737 108.429 49.1339 107.475 47.4885 106.784C45.843 106.092 44.0853 105.746 42.2155 105.746C40.4579 105.746 38.7844 106.045 37.195 106.643C35.5869 107.223 34.2033 108.102 33.044 109.28C32.6887 109.635 32.4176 110.028 32.2306 110.458C32.0436 110.869 31.9501 111.29 31.9501 111.72C31.9314 112.131 32.0062 112.533 32.1745 112.926C32.3428 113.3 32.5952 113.637 32.9318 113.936C33.3057 114.254 33.661 114.478 33.9976 114.609C34.3341 114.74 34.6614 114.805 34.9792 114.805C35.5215 114.805 36.0264 114.674 36.4938 114.413C36.9426 114.132 37.3633 113.833 37.7559 113.515C38.5413 112.917 39.3173 112.487 40.0839 112.225C40.8505 111.963 41.6546 111.832 42.496 111.832C43.4496 111.832 44.3658 112.029 45.2446 112.421C46.1235 112.814 46.8901 113.347 47.5445 114.02C48.199 114.693 48.7225 115.469 49.1152 116.348C49.5079 117.227 49.7042 118.143 49.7042 119.096L49.7323 119.125Z" fill="white"/>
<path fill-rule="evenodd" clip-rule="evenodd" d="M49.4151 93.4319C50.974 91.8729 53.5016 91.8729 55.0606 93.4319L59.577 97.9483C62.3832 100.754 66.9329 100.754 69.739 97.9483L73.6909 93.9964C75.2499 92.4374 77.7775 92.4374 79.3364 93.9964C80.8954 95.5554 80.8954 98.083 79.3364 99.642L75.3846 103.594C69.4605 109.518 59.8556 109.518 53.9315 103.594L49.4151 99.0774C47.8561 97.5184 47.8561 94.9908 49.4151 93.4319Z" fill="white"/>
<path fill-rule="evenodd" clip-rule="evenodd" d="M79.9009 144.242C78.3419 145.801 75.8143 145.801 74.2553 144.242L69.7389 139.725C66.9327 136.919 62.3831 136.919 59.5769 139.725L55.625 143.677C54.066 145.236 51.5385 145.236 49.9795 143.677C48.4205 142.118 48.4205 139.591 49.9795 138.032L53.9314 134.08C59.8555 128.156 69.4603 128.156 75.3844 134.08L79.9009 138.596C81.4598 140.155 81.4598 142.683 79.9009 144.242Z" fill="white"/>
<path fill-rule="evenodd" clip-rule="evenodd" d="M90.0625 134.08C91.6215 132.521 91.6215 129.993 90.0625 128.434L85.5461 123.918C82.7399 121.111 82.7399 116.562 85.5461 113.756L89.498 109.804C91.0569 108.245 91.0569 105.717 89.498 104.158C87.939 102.599 85.4114 102.599 83.8524 104.158L79.9005 108.11C73.9764 114.034 73.9764 123.639 79.9005 129.563L84.417 134.08C85.9759 135.639 88.5035 135.639 90.0625 134.08Z" fill="white"/>
<rect width="21.5421" height="57.7022" rx="10.7711" transform="matrix(-1 0 0 1 403.258 89.5254)" fill="white"/>
<rect width="21.5421" height="57.7022" rx="10.7711" transform="matrix(4.37114e-08 1 1 -4.37114e-08 363.636 107.606)" fill="white"/>
<path fill-rule="evenodd" clip-rule="evenodd" d="M300.843 90.998C298.686 90.998 296.938 92.7463 296.938 94.9029V101.151C296.938 105.033 293.791 108.179 289.909 108.179H284.442C282.286 108.179 280.537 109.928 280.537 112.084C280.537 114.241 282.286 115.989 284.442 115.989H289.909C298.104 115.989 304.748 109.346 304.748 101.151V94.9029C304.748 92.7463 302.999 90.998 300.843 90.998Z" fill="white"/>
<path fill-rule="evenodd" clip-rule="evenodd" d="M314.9 90.998C317.057 90.998 318.805 92.7463 318.805 94.9029V101.151C318.805 105.033 321.952 108.179 325.834 108.179H331.301C333.457 108.179 335.206 109.928 335.206 112.084C335.206 114.241 333.457 115.989 331.301 115.989H325.834C317.639 115.989 310.996 109.346 310.996 101.151V94.9029C310.996 92.7463 312.744 90.998 314.9 90.998Z" fill="white"/>
<path fill-rule="evenodd" clip-rule="evenodd" d="M300.843 147.228C298.686 147.228 296.938 145.48 296.938 143.323V137.075C296.938 133.193 293.791 130.046 289.909 130.046H284.442C282.286 130.046 280.537 128.298 280.537 126.142C280.537 123.985 282.286 122.237 284.442 122.237H289.909C298.104 122.237 304.748 128.88 304.748 137.075V143.323C304.748 145.48 302.999 147.228 300.843 147.228Z" fill="white"/>
<path fill-rule="evenodd" clip-rule="evenodd" d="M314.9 147.228C317.057 147.228 318.805 145.48 318.805 143.323V137.075C318.805 133.193 321.952 130.046 325.834 130.046H331.301C333.457 130.046 335.206 128.298 335.206 126.142C335.206 123.985 333.457 122.237 331.301 122.237H325.834C317.639 122.237 310.996 128.88 310.996 137.075V143.323C310.996 145.48 312.744 147.228 314.9 147.228Z" fill="white"/>
<path fill-rule="evenodd" clip-rule="evenodd" d="M129.38 90.998C127.223 90.998 125.475 92.7463 125.475 94.9029V101.151C125.475 105.033 122.328 108.179 118.446 108.179H112.979C110.823 108.179 109.075 109.928 109.075 112.084C109.075 114.241 110.823 115.989 112.979 115.989H118.446C126.641 115.989 133.285 109.346 133.285 101.151V94.9029C133.285 92.7463 131.536 90.998 129.38 90.998Z" fill="white" stroke="white" stroke-width="2" stroke-linecap="round" stroke-linejoin="bevel"/>
<path fill-rule="evenodd" clip-rule="evenodd" d="M143.438 90.998C145.594 90.998 147.342 92.7463 147.342 94.9029V101.151C147.342 105.033 150.489 108.179 154.371 108.179H159.838C161.995 108.179 163.743 109.928 163.743 112.084C163.743 114.241 161.995 115.989 159.838 115.989H154.371C146.176 115.989 139.533 109.346 139.533 101.151V94.9029C139.533 92.7463 141.281 90.998 143.438 90.998Z" fill="white" stroke="white" stroke-width="2" stroke-linecap="round" stroke-linejoin="bevel"/>
<path fill-rule="evenodd" clip-rule="evenodd" d="M129.38 147.228C127.223 147.228 125.475 145.48 125.475 143.323V137.075C125.475 133.193 122.328 130.046 118.446 130.046H112.979C110.823 130.046 109.075 128.298 109.075 126.142C109.075 123.985 110.823 122.237 112.979 122.237H118.446C126.641 122.237 133.285 128.88 133.285 137.075V143.323C133.285 145.48 131.536 147.228 129.38 147.228Z" fill="white" stroke="white" stroke-width="2" stroke-linecap="round" stroke-linejoin="bevel"/>
<path fill-rule="evenodd" clip-rule="evenodd" d="M143.438 147.228C145.594 147.228 147.342 145.48 147.342 143.323V137.075C147.342 133.193 150.489 130.046 154.371 130.046H159.838C161.995 130.046 163.743 128.298 163.743 126.142C163.743 123.985 161.995 122.237 159.838 122.237H154.371C146.176 122.237 139.533 128.88 139.533 137.075V143.323C139.533 145.48 141.281 147.228 143.438 147.228Z" fill="white" stroke="white" stroke-width="2" stroke-linecap="round" stroke-linejoin="bevel"/>
<path fill-rule="evenodd" clip-rule="evenodd" d="M235.519 94.2623C233.994 92.7373 231.522 92.7373 229.997 94.2623L225.579 98.6801C222.834 101.425 218.384 101.425 215.639 98.6801L211.773 94.8145C210.248 93.2896 207.776 93.2896 206.251 94.8145C204.726 96.3395 204.726 98.8119 206.251 100.337L210.117 104.202C215.911 109.997 225.307 109.997 231.101 104.202L235.519 99.7846C237.044 98.2596 237.044 95.7872 235.519 94.2623Z" fill="white"/>
<path fill-rule="evenodd" clip-rule="evenodd" d="M245.459 104.203C246.984 105.727 246.984 108.2 245.459 109.725L241.041 114.143C238.296 116.888 238.296 121.338 241.041 124.083L244.907 127.948C246.432 129.473 246.432 131.946 244.907 133.471C243.382 134.996 240.909 134.996 239.384 133.471L235.519 129.605C229.724 123.81 229.724 114.415 235.519 108.62L239.937 104.203C241.462 102.678 243.934 102.678 245.459 104.203Z" fill="white"/>
<path fill-rule="evenodd" clip-rule="evenodd" d="M195.757 134.023C194.232 132.498 194.232 130.025 195.757 128.5L200.175 124.083C202.92 121.338 202.92 116.887 200.175 114.143L196.31 110.277C194.785 108.752 194.785 106.28 196.31 104.755C197.835 103.23 200.307 103.23 201.832 104.755L205.698 108.62C211.492 114.415 211.492 123.81 205.698 129.605L201.28 134.023C199.755 135.548 197.282 135.548 195.757 134.023Z" fill="white"/>
<path fill-rule="evenodd" clip-rule="evenodd" d="M205.698 143.963C207.223 145.488 209.696 145.488 211.22 143.963L215.638 139.545C218.383 136.8 222.834 136.8 225.578 139.545L229.444 143.411C230.969 144.936 233.441 144.936 234.966 143.411C236.491 141.886 236.491 139.413 234.966 137.888L231.101 134.023C225.306 128.228 215.911 128.228 210.116 134.023L205.698 138.441C204.173 139.965 204.173 142.438 205.698 143.963Z" fill="white"/>
<path d="M49.7323 257.125C49.7323 258.003 49.5546 258.873 49.1994 259.733C48.8254 260.593 48.3299 261.369 47.7128 262.061C47.0771 262.734 46.3385 263.286 45.4971 263.716C44.6556 264.146 43.7488 264.37 42.7765 264.389C41.7667 264.389 40.8786 264.267 40.1119 264.024C39.3266 263.762 38.5413 263.304 37.7559 262.65C37.382 262.332 36.9706 262.042 36.5219 261.78C36.0544 261.5 35.5495 261.36 35.0073 261.36C34.6894 261.36 34.3528 261.435 33.9976 261.584C33.6423 261.715 33.2777 261.939 32.9037 262.257C32.5858 262.538 32.3521 262.874 32.2025 263.267C32.0342 263.641 31.9595 264.043 31.9782 264.473C31.9782 264.884 32.0716 265.296 32.2586 265.707C32.4269 266.118 32.6887 266.511 33.044 266.885C34.2033 268.063 35.5869 268.961 37.195 269.578C38.7844 270.195 40.4579 270.503 42.2155 270.503C44.0853 270.503 45.843 270.167 47.4885 269.494C49.1339 268.802 50.5737 267.857 51.8078 266.661C53.0419 265.464 54.0142 264.062 54.7247 262.454C55.4353 260.827 55.7905 259.079 55.7905 257.209C55.7718 257.19 55.7625 257.171 55.7625 257.153H55.7905C55.7905 255.283 55.4353 253.534 54.7247 251.908C54.0142 250.262 53.0419 248.841 51.8078 247.644C50.5737 246.429 49.1339 245.475 47.4885 244.784C45.843 244.092 44.0853 243.746 42.2155 243.746C40.4579 243.746 38.7844 244.045 37.195 244.643C35.5869 245.223 34.2033 246.102 33.044 247.28C32.6887 247.635 32.4176 248.028 32.2306 248.458C32.0436 248.869 31.9501 249.29 31.9501 249.72C31.9314 250.131 32.0062 250.533 32.1745 250.926C32.3428 251.3 32.5952 251.637 32.9318 251.936C33.3057 252.254 33.661 252.478 33.9976 252.609C34.3341 252.74 34.6614 252.805 34.9792 252.805C35.5215 252.805 36.0264 252.674 36.4938 252.413C36.9426 252.132 37.3633 251.833 37.7559 251.515C38.5413 250.917 39.3173 250.487 40.0839 250.225C40.8505 249.963 41.6546 249.832 42.496 249.832C43.4496 249.832 44.3658 250.029 45.2446 250.421C46.1235 250.814 46.8901 251.347 47.5445 252.02C48.199 252.693 48.7225 253.469 49.1152 254.348C49.5079 255.227 49.7042 256.143 49.7042 257.096L49.7323 257.125Z" fill="white"/>
<path fill-rule="evenodd" clip-rule="evenodd" d="M49.4151 231.432C50.974 229.873 53.5016 229.873 55.0606 231.432L59.577 235.948C62.3832 238.754 66.9329 238.754 69.739 235.948L73.6909 231.996C75.2499 230.437 77.7775 230.437 79.3364 231.996C80.8954 233.555 80.8954 236.083 79.3364 237.642L75.3846 241.594C69.4605 247.518 59.8556 247.518 53.9315 241.594L49.4151 237.077C47.8561 235.518 47.8561 232.991 49.4151 231.432Z" fill="white"/>
<path fill-rule="evenodd" clip-rule="evenodd" d="M79.9009 282.242C78.3419 283.801 75.8143 283.801 74.2553 282.242L69.7389 277.725C66.9327 274.919 62.3831 274.919 59.5769 277.725L55.625 281.677C54.066 283.236 51.5385 283.236 49.9795 281.677C48.4205 280.118 48.4205 277.591 49.9795 276.032L53.9314 272.08C59.8555 266.156 69.4603 266.156 75.3844 272.08L79.9009 276.596C81.4598 278.155 81.4598 280.683 79.9009 282.242Z" fill="white"/>
<path fill-rule="evenodd" clip-rule="evenodd" d="M90.0625 272.08C91.6215 270.521 91.6215 267.993 90.0625 266.434L85.5461 261.918C82.7399 259.111 82.7399 254.562 85.5461 251.756L89.498 247.804C91.0569 246.245 91.0569 243.717 89.498 242.158C87.939 240.599 85.4114 240.599 83.8524 242.158L79.9005 246.11C73.9764 252.034 73.9764 261.639 79.9005 267.563L84.417 272.08C85.9759 273.639 88.5035 273.639 90.0625 272.08Z" fill="white"/>
<rect width="21.5421" height="57.7022" rx="10.7711" transform="matrix(-1 0 0 1 403.258 227.525)" fill="white"/>
<rect width="21.5421" height="57.7022" rx="10.7711" transform="matrix(4.37114e-08 1 1 -4.37114e-08 363.636 245.606)" fill="white"/>
<path fill-rule="evenodd" clip-rule="evenodd" d="M300.843 228.998C298.686 228.998 296.938 230.746 296.938 232.903V239.151C296.938 243.033 293.791 246.179 289.909 246.179H284.442C282.286 246.179 280.537 247.928 280.537 250.084C280.537 252.241 282.286 253.989 284.442 253.989H289.909C298.104 253.989 304.748 247.346 304.748 239.151V232.903C304.748 230.746 302.999 228.998 300.843 228.998Z" fill="white"/>
<path fill-rule="evenodd" clip-rule="evenodd" d="M314.9 228.998C317.057 228.998 318.805 230.746 318.805 232.903V239.151C318.805 243.033 321.952 246.179 325.834 246.179H331.301C333.457 246.179 335.206 247.928 335.206 250.084C335.206 252.241 333.457 253.989 331.301 253.989H325.834C317.639 253.989 310.996 247.346 310.996 239.151V232.903C310.996 230.746 312.744 228.998 314.9 228.998Z" fill="white"/>
<path fill-rule="evenodd" clip-rule="evenodd" d="M300.843 285.228C298.686 285.228 296.938 283.48 296.938 281.323V275.075C296.938 271.193 293.791 268.046 289.909 268.046H284.442C282.286 268.046 280.537 266.298 280.537 264.142C280.537 261.985 282.286 260.237 284.442 260.237H289.909C298.104 260.237 304.748 266.88 304.748 275.075V281.323C304.748 283.48 302.999 285.228 300.843 285.228Z" fill="white"/>
<path fill-rule="evenodd" clip-rule="evenodd" d="M314.9 285.228C317.057 285.228 318.805 283.48 318.805 281.323V275.075C318.805 271.193 321.952 268.046 325.834 268.046H331.301C333.457 268.046 335.206 266.298 335.206 264.142C335.206 261.985 333.457 260.237 331.301 260.237H325.834C317.639 260.237 310.996 266.88 310.996 275.075V281.323C310.996 283.48 312.744 285.228 314.9 285.228Z" fill="white"/>
<path fill-rule="evenodd" clip-rule="evenodd" d="M129.38 228.998C127.223 228.998 125.475 230.746 125.475 232.903V239.151C125.475 243.033 122.328 246.179 118.446 246.179H112.979C110.823 246.179 109.075 247.928 109.075 250.084C109.075 252.241 110.823 253.989 112.979 253.989H118.446C126.641 253.989 133.285 247.346 133.285 239.151V232.903C133.285 230.746 131.536 228.998 129.38 228.998Z" fill="white" stroke="white" stroke-width="2" stroke-linecap="round" stroke-linejoin="bevel"/>
<path fill-rule="evenodd" clip-rule="evenodd" d="M143.438 228.998C145.594 228.998 147.342 230.746 147.342 232.903V239.151C147.342 243.033 150.489 246.179 154.371 246.179H159.838C161.995 246.179 163.743 247.928 163.743 250.084C163.743 252.241 161.995 253.989 159.838 253.989H154.371C146.176 253.989 139.533 247.346 139.533 239.151V232.903C139.533 230.746 141.281 228.998 143.438 228.998Z" fill="white" stroke="white" stroke-width="2" stroke-linecap="round" stroke-linejoin="bevel"/>
<path fill-rule="evenodd" clip-rule="evenodd" d="M129.38 285.228C127.223 285.228 125.475 283.48 125.475 281.323V275.075C125.475 271.193 122.328 268.046 118.446 268.046H112.979C110.823 268.046 109.075 266.298 109.075 264.142C109.075 261.985 110.823 260.237 112.979 260.237H118.446C126.641 260.237 133.285 266.88 133.285 275.075V281.323C133.285 283.48 131.536 285.228 129.38 285.228Z" fill="white" stroke="white" stroke-width="2" stroke-linecap="round" stroke-linejoin="bevel"/>
<path fill-rule="evenodd" clip-rule="evenodd" d="M143.438 285.228C145.594 285.228 147.342 283.48 147.342 281.323V275.075C147.342 271.193 150.489 268.046 154.371 268.046H159.838C161.995 268.046 163.743 266.298 163.743 264.142C163.743 261.985 161.995 260.237 159.838 260.237H154.371C146.176 260.237 139.533 266.88 139.533 275.075V281.323C139.533 283.48 141.281 285.228 143.438 285.228Z" fill="white" stroke="white" stroke-width="2" stroke-linecap="round" stroke-linejoin="bevel"/>
<path fill-rule="evenodd" clip-rule="evenodd" d="M235.519 232.262C233.994 230.737 231.522 230.737 229.997 232.262L225.579 236.68C222.834 239.425 218.384 239.425 215.639 236.68L211.773 232.815C210.248 231.29 207.776 231.29 206.251 232.815C204.726 234.339 204.726 236.812 206.251 238.337L210.117 242.202C215.911 247.997 225.307 247.997 231.101 242.202L235.519 237.785C237.044 236.26 237.044 233.787 235.519 232.262Z" fill="white"/>
<path fill-rule="evenodd" clip-rule="evenodd" d="M245.459 242.203C246.984 243.727 246.984 246.2 245.459 247.725L241.041 252.143C238.296 254.888 238.296 259.338 241.041 262.083L244.907 265.948C246.432 267.473 246.432 269.946 244.907 271.471C243.382 272.996 240.909 272.996 239.384 271.471L235.519 267.605C229.724 261.81 229.724 252.415 235.519 246.62L239.937 242.203C241.462 240.678 243.934 240.678 245.459 242.203Z" fill="white"/>
<path fill-rule="evenodd" clip-rule="evenodd" d="M195.757 272.023C194.232 270.498 194.232 268.025 195.757 266.5L200.175 262.083C202.92 259.338 202.92 254.887 200.175 252.143L196.31 248.277C194.785 246.752 194.785 244.28 196.31 242.755C197.835 241.23 200.307 241.23 201.832 242.755L205.698 246.62C211.492 252.415 211.492 261.81 205.698 267.605L201.28 272.023C199.755 273.548 197.282 273.548 195.757 272.023Z" fill="white"/>
<path fill-rule="evenodd" clip-rule="evenodd" d="M205.698 281.963C207.223 283.488 209.696 283.488 211.22 281.963L215.638 277.545C218.383 274.8 222.834 274.8 225.578 277.545L229.444 281.411C230.969 282.936 233.441 282.936 234.966 281.411C236.491 279.886 236.491 277.413 234.966 275.888L231.101 272.023C225.306 266.228 215.911 266.228 210.116 272.023L205.698 276.441C204.173 277.965 204.173 280.438 205.698 281.963Z" fill="white"/>
<path d="M49.7323 387.125C49.7323 388.003 49.5546 388.873 49.1994 389.733C48.8254 390.593 48.3299 391.369 47.7128 392.061C47.0771 392.734 46.3385 393.286 45.4971 393.716C44.6556 394.146 43.7488 394.37 42.7765 394.389C41.7667 394.389 40.8786 394.267 40.1119 394.024C39.3266 393.762 38.5413 393.304 37.7559 392.65C37.382 392.332 36.9706 392.042 36.5219 391.78C36.0544 391.5 35.5495 391.36 35.0073 391.36C34.6894 391.36 34.3528 391.435 33.9976 391.584C33.6423 391.715 33.2777 391.939 32.9037 392.257C32.5858 392.538 32.3521 392.874 32.2025 393.267C32.0342 393.641 31.9595 394.043 31.9782 394.473C31.9782 394.884 32.0716 395.296 32.2586 395.707C32.4269 396.118 32.6887 396.511 33.044 396.885C34.2033 398.063 35.5869 398.961 37.195 399.578C38.7844 400.195 40.4579 400.503 42.2155 400.503C44.0853 400.503 45.843 400.167 47.4885 399.494C49.1339 398.802 50.5737 397.857 51.8078 396.661C53.0419 395.464 54.0142 394.062 54.7247 392.454C55.4353 390.827 55.7905 389.079 55.7905 387.209C55.7718 387.19 55.7625 387.171 55.7625 387.153H55.7905C55.7905 385.283 55.4353 383.534 54.7247 381.908C54.0142 380.262 53.0419 378.841 51.8078 377.644C50.5737 376.429 49.1339 375.475 47.4885 374.784C45.843 374.092 44.0853 373.746 42.2155 373.746C40.4579 373.746 38.7844 374.045 37.195 374.643C35.5869 375.223 34.2033 376.102 33.044 377.28C32.6887 377.635 32.4176 378.028 32.2306 378.458C32.0436 378.869 31.9501 379.29 31.9501 379.72C31.9314 380.131 32.0062 380.533 32.1745 380.926C32.3428 381.3 32.5952 381.637 32.9318 381.936C33.3057 382.254 33.661 382.478 33.9976 382.609C34.3341 382.74 34.6614 382.805 34.9792 382.805C35.5215 382.805 36.0264 382.674 36.4938 382.413C36.9426 382.132 37.3633 381.833 37.7559 381.515C38.5413 380.917 39.3173 380.487 40.0839 380.225C40.8505 379.963 41.6546 379.832 42.496 379.832C43.4496 379.832 44.3658 380.029 45.2446 380.421C46.1235 380.814 46.8901 381.347 47.5445 382.02C48.199 382.693 48.7225 383.469 49.1152 384.348C49.5079 385.227 49.7042 386.143 49.7042 387.096L49.7323 387.125Z" fill="white"/>
<path fill-rule="evenodd" clip-rule="evenodd" d="M49.4151 361.432C50.974 359.873 53.5016 359.873 55.0606 361.432L59.577 365.948C62.3832 368.754 66.9329 368.754 69.739 365.948L73.6909 361.996C75.2499 360.437 77.7775 360.437 79.3364 361.996C80.8954 363.555 80.8954 366.083 79.3364 367.642L75.3846 371.594C69.4605 377.518 59.8556 377.518 53.9315 371.594L49.4151 367.077C47.8561 365.518 47.8561 362.991 49.4151 361.432Z" fill="white"/>
<path fill-rule="evenodd" clip-rule="evenodd" d="M79.9009 412.242C78.3419 413.801 75.8143 413.801 74.2553 412.242L69.7389 407.725C66.9327 404.919 62.3831 404.919 59.5769 407.725L55.625 411.677C54.066 413.236 51.5385 413.236 49.9795 411.677C48.4205 410.118 48.4205 407.591 49.9795 406.032L53.9314 402.08C59.8555 396.156 69.4603 396.156 75.3844 402.08L79.9009 406.596C81.4598 408.155 81.4598 410.683 79.9009 412.242Z" fill="white"/>
<path fill-rule="evenodd" clip-rule="evenodd" d="M90.0625 402.08C91.6215 400.521 91.6215 397.993 90.0625 396.434L85.5461 391.918C82.7399 389.111 82.7399 384.562 85.5461 381.756L89.498 377.804C91.0569 376.245 91.0569 373.717 89.498 372.158C87.939 370.599 85.4114 370.599 83.8524 372.158L79.9005 376.11C73.9764 382.034 73.9764 391.639 79.9005 397.563L84.417 402.08C85.9759 403.639 88.5035 403.639 90.0625 402.08Z" fill="white"/>
<rect width="21.5421" height="57.7022" rx="10.7711" transform="matrix(-1 0 0 1 403.258 357.525)" fill="white"/>
<rect width="21.5421" height="57.7022" rx="10.7711" transform="matrix(4.37114e-08 1 1 -4.37114e-08 363.636 375.606)" fill="white"/>
<path fill-rule="evenodd" clip-rule="evenodd" d="M300.843 358.998C298.686 358.998 296.938 360.746 296.938 362.903V369.151C296.938 373.033 293.791 376.179 289.909 376.179H284.442C282.286 376.179 280.537 377.928 280.537 380.084C280.537 382.241 282.286 383.989 284.442 383.989H289.909C298.104 383.989 304.748 377.346 304.748 369.151V362.903C304.748 360.746 302.999 358.998 300.843 358.998Z" fill="white"/>
<path fill-rule="evenodd" clip-rule="evenodd" d="M314.9 358.998C317.057 358.998 318.805 360.746 318.805 362.903V369.151C318.805 373.033 321.952 376.179 325.834 376.179H331.301C333.457 376.179 335.206 377.928 335.206 380.084C335.206 382.241 333.457 383.989 331.301 383.989H325.834C317.639 383.989 310.996 377.346 310.996 369.151V362.903C310.996 360.746 312.744 358.998 314.9 358.998Z" fill="white"/>
<path fill-rule="evenodd" clip-rule="evenodd" d="M300.843 415.228C298.686 415.228 296.938 413.48 296.938 411.323V405.075C296.938 401.193 293.791 398.046 289.909 398.046H284.442C282.286 398.046 280.537 396.298 280.537 394.142C280.537 391.985 282.286 390.237 284.442 390.237H289.909C298.104 390.237 304.748 396.88 304.748 405.075V411.323C304.748 413.48 302.999 415.228 300.843 415.228Z" fill="white"/>
<path fill-rule="evenodd" clip-rule="evenodd" d="M314.9 415.228C317.057 415.228 318.805 413.48 318.805 411.323V405.075C318.805 401.193 321.952 398.046 325.834 398.046H331.301C333.457 398.046 335.206 396.298 335.206 394.142C335.206 391.985 333.457 390.237 331.301 390.237H325.834C317.639 390.237 310.996 396.88 310.996 405.075V411.323C310.996 413.48 312.744 415.228 314.9 415.228Z" fill="white"/>
<path fill-rule="evenodd" clip-rule="evenodd" d="M129.38 358.998C127.223 358.998 125.475 360.746 125.475 362.903V369.151C125.475 373.033 122.328 376.179 118.446 376.179H112.979C110.823 376.179 109.075 377.928 109.075 380.084C109.075 382.241 110.823 383.989 112.979 383.989H118.446C126.641 383.989 133.285 377.346 133.285 369.151V362.903C133.285 360.746 131.536 358.998 129.38 358.998Z" fill="white" stroke="white" stroke-width="2" stroke-linecap="round" stroke-linejoin="bevel"/>
<path fill-rule="evenodd" clip-rule="evenodd" d="M143.438 358.998C145.594 358.998 147.342 360.746 147.342 362.903V369.151C147.342 373.033 150.489 376.179 154.371 376.179H159.838C161.995 376.179 163.743 377.928 163.743 380.084C163.743 382.241 161.995 383.989 159.838 383.989H154.371C146.176 383.989 139.533 377.346 139.533 369.151V362.903C139.533 360.746 141.281 358.998 143.438 358.998Z" fill="white" stroke="white" stroke-width="2" stroke-linecap="round" stroke-linejoin="bevel"/>
<path fill-rule="evenodd" clip-rule="evenodd" d="M129.38 415.228C127.223 415.228 125.475 413.48 125.475 411.323V405.075C125.475 401.193 122.328 398.046 118.446 398.046H112.979C110.823 398.046 109.075 396.298 109.075 394.142C109.075 391.985 110.823 390.237 112.979 390.237H118.446C126.641 390.237 133.285 396.88 133.285 405.075V411.323C133.285 413.48 131.536 415.228 129.38 415.228Z" fill="white" stroke="white" stroke-width="2" stroke-linecap="round" stroke-linejoin="bevel"/>
<path fill-rule="evenodd" clip-rule="evenodd" d="M143.438 415.228C145.594 415.228 147.342 413.48 147.342 411.323V405.075C147.342 401.193 150.489 398.046 154.371 398.046H159.838C161.995 398.046 163.743 396.298 163.743 394.142C163.743 391.985 161.995 390.237 159.838 390.237H154.371C146.176 390.237 139.533 396.88 139.533 405.075V411.323C139.533 413.48 141.281 415.228 143.438 415.228Z" fill="white" stroke="white" stroke-width="2" stroke-linecap="round" stroke-linejoin="bevel"/>
<path fill-rule="evenodd" clip-rule="evenodd" d="M235.519 362.262C233.994 360.737 231.522 360.737 229.997 362.262L225.579 366.68C222.834 369.425 218.384 369.425 215.639 366.68L211.773 362.815C210.248 361.29 207.776 361.29 206.251 362.815C204.726 364.339 204.726 366.812 206.251 368.337L210.117 372.202C215.911 377.997 225.307 377.997 231.101 372.202L235.519 367.785C237.044 366.26 237.044 363.787 235.519 362.262Z" fill="white"/>
<path fill-rule="evenodd" clip-rule="evenodd" d="M245.459 372.203C246.984 373.727 246.984 376.2 245.459 377.725L241.041 382.143C238.296 384.888 238.296 389.338 241.041 392.083L244.907 395.948C246.432 397.473 246.432 399.946 244.907 401.471C243.382 402.996 240.909 402.996 239.384 401.471L235.519 397.605C229.724 391.81 229.724 382.415 235.519 376.62L239.937 372.203C241.462 370.678 243.934 370.678 245.459 372.203Z" fill="white"/>
<path fill-rule="evenodd" clip-rule="evenodd" d="M195.757 402.023C194.232 400.498 194.232 398.025 195.757 396.5L200.175 392.083C202.92 389.338 202.92 384.887 200.175 382.143L196.31 378.277C194.785 376.752 194.785 374.28 196.31 372.755C197.835 371.23 200.307 371.23 201.832 372.755L205.698 376.62C211.492 382.415 211.492 391.81 205.698 397.605L201.28 402.023C199.755 403.548 197.282 403.548 195.757 402.023Z" fill="white"/>
<path fill-rule="evenodd" clip-rule="evenodd" d="M205.698 411.963C207.223 413.488 209.696 413.488 211.22 411.963L215.638 407.545C218.383 404.8 222.834 404.8 225.578 407.545L229.444 411.411C230.969 412.936 233.441 412.936 234.966 411.411C236.491 409.886 236.491 407.413 234.966 405.888L231.101 402.023C225.306 396.228 215.911 396.228 210.116 402.023L205.698 406.441C204.173 407.965 204.173 410.438 205.698 411.963Z" fill="white"/>
<path d="M396.181 50.1245C396.181 51.0034 396.358 51.8728 396.714 52.733C397.088 53.5931 397.583 54.3691 398.2 55.0609C398.836 55.734 399.575 56.2856 400.416 56.7157C401.257 57.1458 402.164 57.3701 403.137 57.3888C404.146 57.3888 405.035 57.2673 405.801 57.0242C406.586 56.7625 407.372 56.3043 408.157 55.6499C408.531 55.332 408.942 55.0422 409.391 54.7804C409.859 54.4999 410.364 54.3597 410.906 54.3597C411.224 54.3597 411.56 54.4345 411.916 54.5841C412.271 54.715 412.635 54.9394 413.009 55.2572C413.327 55.5377 413.561 55.8743 413.711 56.2669C413.879 56.6409 413.954 57.0429 413.935 57.473C413.935 57.8844 413.841 58.2957 413.654 58.7071C413.486 59.1184 413.224 59.5111 412.869 59.8851C411.71 61.0631 410.326 61.9606 408.718 62.5776C407.129 63.1947 405.455 63.5032 403.698 63.5032C401.828 63.5032 400.07 63.1666 398.425 62.4935C396.779 61.8017 395.339 60.8574 394.105 59.6607C392.871 58.464 391.899 57.0616 391.188 55.4536C390.478 53.8268 390.123 52.0785 390.123 50.2087C390.141 50.19 390.151 50.1713 390.151 50.1526H390.123C390.123 48.2827 390.478 46.5344 391.188 44.9077C391.899 43.2622 392.871 41.8412 394.105 40.6445C395.339 39.4291 396.779 38.4754 398.425 37.7836C400.07 37.0918 401.828 36.7458 403.698 36.7458C405.455 36.7458 407.129 37.045 408.718 37.6434C410.326 38.223 411.71 39.1018 412.869 40.2798C413.224 40.6351 413.496 41.0278 413.683 41.4578C413.869 41.8692 413.963 42.2899 413.963 42.72C413.982 43.1313 413.907 43.5334 413.739 43.926C413.57 44.3 413.318 44.6366 412.981 44.9357C412.607 45.2536 412.252 45.478 411.916 45.6089C411.579 45.7398 411.252 45.8052 410.934 45.8052C410.392 45.8052 409.887 45.6743 409.419 45.4125C408.971 45.1321 408.55 44.8329 408.157 44.515C407.372 43.9167 406.596 43.4866 405.829 43.2248C405.063 42.9631 404.259 42.8322 403.417 42.8322C402.463 42.8322 401.547 43.0285 400.668 43.4212C399.79 43.8138 399.023 44.3467 398.369 45.0199C397.714 45.693 397.191 46.469 396.798 47.3478C396.405 48.2266 396.209 49.1429 396.209 50.0965L396.181 50.1245Z" fill="white"/>
<path fill-rule="evenodd" clip-rule="evenodd" d="M396.498 24.4319C394.939 22.8729 392.411 22.8729 390.852 24.4319L386.336 28.9483C383.53 31.7545 378.98 31.7545 376.174 28.9483L372.222 24.9964C370.663 23.4374 368.136 23.4374 366.577 24.9964C365.018 26.5554 365.018 29.083 366.577 30.642L370.529 34.5938C376.453 40.5179 386.057 40.5179 391.982 34.5938L396.498 30.0774C398.057 28.5184 398.057 25.9908 396.498 24.4319Z" fill="white"/>
<path fill-rule="evenodd" clip-rule="evenodd" d="M366.012 75.2417C367.571 76.8007 370.099 76.8007 371.658 75.2417L376.174 70.7253C378.98 67.9191 383.53 67.9191 386.336 70.7253L390.288 74.6772C391.847 76.2361 394.375 76.2361 395.934 74.6772C397.493 73.1182 397.493 70.5906 395.934 69.0316L391.982 65.0797C386.058 59.1556 376.453 59.1556 370.529 65.0797L366.012 69.5962C364.453 71.1551 364.453 73.6827 366.012 75.2417Z" fill="white"/>
<path fill-rule="evenodd" clip-rule="evenodd" d="M355.851 65.0796C354.292 63.5206 354.292 60.993 355.851 59.434L360.367 54.9176C363.173 52.1114 363.173 47.5618 360.367 44.7556L356.415 40.8037C354.856 39.2448 354.856 36.7172 356.415 35.1582C357.974 33.5992 360.502 33.5992 362.061 35.1582L366.013 39.1101C371.937 45.0342 371.937 54.639 366.013 60.5631L361.496 65.0796C359.937 66.6385 357.41 66.6385 355.851 65.0796Z" fill="white"/>
<rect x="208.655" y="20.5254" width="21.5421" height="57.7022" rx="10.7711" fill="white"/>
<rect x="248.277" y="38.6057" width="21.5421" height="57.7022" rx="10.7711" transform="rotate(90 248.277 38.6057)" fill="white"/>
<path fill-rule="evenodd" clip-rule="evenodd" d="M145.07 21.998C147.227 21.998 148.975 23.7463 148.975 25.9029V32.1507C148.975 36.0325 152.122 39.1794 156.004 39.1794H161.471C163.627 39.1794 165.376 40.9277 165.376 43.0843C165.376 45.2409 163.627 46.9891 161.471 46.9891H156.004C147.809 46.9891 141.166 40.3457 141.166 32.1507V25.9029C141.166 23.7463 142.914 21.998 145.07 21.998Z" fill="white"/>
<path fill-rule="evenodd" clip-rule="evenodd" d="M131.013 21.998C128.856 21.998 127.108 23.7463 127.108 25.9029V32.1507C127.108 36.0325 123.961 39.1794 120.079 39.1794H114.612C112.456 39.1794 110.707 40.9277 110.707 43.0843C110.707 45.2409 112.456 46.9891 114.612 46.9891H120.079C128.274 46.9891 134.917 40.3457 134.917 32.1507V25.9029C134.917 23.7463 133.169 21.998 131.013 21.998Z" fill="white"/>
<path fill-rule="evenodd" clip-rule="evenodd" d="M145.07 78.2278C147.227 78.2278 148.975 76.4795 148.975 74.3229V68.0752C148.975 64.1933 152.122 61.0464 156.004 61.0464H161.471C163.627 61.0464 165.376 59.2982 165.376 57.1416C165.376 54.985 163.627 53.2367 161.471 53.2367H156.004C147.809 53.2367 141.166 59.8801 141.166 68.0752V74.3229C141.166 76.4795 142.914 78.2278 145.07 78.2278Z" fill="white"/>
<path fill-rule="evenodd" clip-rule="evenodd" d="M131.013 78.2278C128.856 78.2278 127.108 76.4795 127.108 74.3229V68.0752C127.108 64.1933 123.961 61.0464 120.079 61.0464H114.612C112.456 61.0464 110.707 59.2982 110.707 57.1416C110.707 54.985 112.456 53.2367 114.612 53.2367H120.079C128.274 53.2367 134.917 59.8801 134.917 68.0752V74.3229C134.917 76.4795 133.169 78.2278 131.013 78.2278Z" fill="white"/>
<path fill-rule="evenodd" clip-rule="evenodd" d="M74.5338 21.998C76.6904 21.998 78.4386 23.7463 78.4386 25.9029V32.1507C78.4386 36.0325 81.5855 39.1794 85.4674 39.1794H90.9342C93.0907 39.1794 94.839 40.9277 94.839 43.0843C94.839 45.2409 93.0907 46.9891 90.9342 46.9891H85.4674C77.2723 46.9891 70.6289 40.3457 70.6289 32.1507V25.9029C70.6289 23.7463 72.3772 21.998 74.5338 21.998Z" fill="white" stroke="white" stroke-width="2" stroke-linecap="round" stroke-linejoin="bevel"/>
<path fill-rule="evenodd" clip-rule="evenodd" d="M60.476 21.998C58.3194 21.998 56.5711 23.7463 56.5711 25.9029V32.1507C56.5711 36.0325 53.4243 39.1794 49.5424 39.1794H44.0756C41.919 39.1794 40.1708 40.9277 40.1708 43.0843C40.1708 45.2409 41.919 46.9891 44.0756 46.9891H49.5424C57.7375 46.9891 64.3809 40.3457 64.3809 32.1507V25.9029C64.3809 23.7463 62.6326 21.998 60.476 21.998Z" fill="white" stroke="white" stroke-width="2" stroke-linecap="round" stroke-linejoin="bevel"/>
<path fill-rule="evenodd" clip-rule="evenodd" d="M74.5338 78.2278C76.6904 78.2278 78.4386 76.4795 78.4386 74.3229V68.0752C78.4386 64.1933 81.5855 61.0464 85.4674 61.0464H90.9342C93.0907 61.0464 94.839 59.2982 94.839 57.1416C94.839 54.985 93.0907 53.2367 90.9342 53.2367H85.4674C77.2723 53.2367 70.6289 59.8801 70.6289 68.0752V74.3229C70.6289 76.4795 72.3772 78.2278 74.5338 78.2278Z" fill="white" stroke="white" stroke-width="2" stroke-linecap="round" stroke-linejoin="bevel"/>
<path fill-rule="evenodd" clip-rule="evenodd" d="M60.476 78.2278C58.3194 78.2278 56.5711 76.4795 56.5711 74.3229V68.0752C56.5711 64.1933 53.4243 61.0464 49.5424 61.0464H44.0756C41.919 61.0464 40.1708 59.2982 40.1708 57.1416C40.1708 54.985 41.919 53.2367 44.0756 53.2367H49.5424C57.7375 53.2367 64.3809 59.8801 64.3809 68.0752V74.3229C64.3809 76.4795 62.6326 78.2278 60.476 78.2278Z" fill="white" stroke="white" stroke-width="2" stroke-linecap="round" stroke-linejoin="bevel"/>
<path fill-rule="evenodd" clip-rule="evenodd" d="M282.394 25.2623C283.919 23.7373 286.391 23.7373 287.916 25.2623L292.334 29.6801C295.079 32.425 299.529 32.425 302.274 29.6801L306.14 25.8145C307.665 24.2896 310.137 24.2896 311.662 25.8145C313.187 27.3395 313.187 29.8119 311.662 31.3368L307.797 35.2024C302.002 40.9972 292.607 40.9972 286.812 35.2024L282.394 30.7846C280.869 29.2596 280.869 26.7872 282.394 25.2623Z" fill="white"/>
<path fill-rule="evenodd" clip-rule="evenodd" d="M272.454 35.2026C270.929 36.7275 270.929 39.1999 272.454 40.7249L276.872 45.1427C279.617 47.8876 279.617 52.3379 276.872 55.0828L273.006 58.9484C271.481 60.4734 271.481 62.9458 273.006 64.4707C274.531 65.9957 277.004 65.9957 278.529 64.4707L282.394 60.6051C288.189 54.8104 288.189 45.4152 282.394 39.6204L277.976 35.2026C276.452 33.6776 273.979 33.6776 272.454 35.2026Z" fill="white"/>
<path fill-rule="evenodd" clip-rule="evenodd" d="M322.156 65.0228C323.681 63.4978 323.681 61.0254 322.156 59.5005L317.738 55.0826C314.993 52.3378 314.993 47.8874 317.738 45.1425L321.603 41.2769C323.128 39.752 323.128 37.2795 321.603 35.7546C320.079 34.2297 317.606 34.2297 316.081 35.7546L312.216 39.6202C306.421 45.415 306.421 54.8102 312.216 60.6049L316.633 65.0228C318.158 66.5477 320.631 66.5477 322.156 65.0228Z" fill="white"/>
<path fill-rule="evenodd" clip-rule="evenodd" d="M312.215 74.9628C310.69 76.4878 308.218 76.4878 306.693 74.9628L302.275 70.545C299.53 67.8001 295.08 67.8001 292.335 70.545L288.469 74.4106C286.944 75.9355 284.472 75.9355 282.947 74.4106C281.422 72.8856 281.422 70.4132 282.947 68.8883L286.812 65.0227C292.607 59.2279 302.002 59.2279 307.797 65.0227L312.215 69.4405C313.74 70.9655 313.74 73.4379 312.215 74.9628Z" fill="white"/>
<path d="M404.181 188.125C404.181 189.003 404.358 189.873 404.714 190.733C405.088 191.593 405.583 192.369 406.2 193.061C406.836 193.734 407.575 194.286 408.416 194.716C409.257 195.146 410.164 195.37 411.137 195.389C412.146 195.389 413.035 195.267 413.801 195.024C414.586 194.762 415.372 194.304 416.157 193.65C416.531 193.332 416.942 193.042 417.391 192.78C417.859 192.5 418.364 192.36 418.906 192.36C419.224 192.36 419.56 192.435 419.916 192.584C420.271 192.715 420.635 192.939 421.009 193.257C421.327 193.538 421.561 193.874 421.711 194.267C421.879 194.641 421.954 195.043 421.935 195.473C421.935 195.884 421.841 196.296 421.654 196.707C421.486 197.118 421.224 197.511 420.869 197.885C419.71 199.063 418.326 199.961 416.718 200.578C415.129 201.195 413.455 201.503 411.698 201.503C409.828 201.503 408.07 201.167 406.425 200.494C404.779 199.802 403.339 198.857 402.105 197.661C400.871 196.464 399.899 195.062 399.188 193.454C398.478 191.827 398.123 190.079 398.123 188.209C398.141 188.19 398.151 188.171 398.151 188.153H398.123C398.123 186.283 398.478 184.534 399.188 182.908C399.899 181.262 400.871 179.841 402.105 178.644C403.339 177.429 404.779 176.475 406.425 175.784C408.07 175.092 409.828 174.746 411.698 174.746C413.455 174.746 415.129 175.045 416.718 175.643C418.326 176.223 419.71 177.102 420.869 178.28C421.224 178.635 421.496 179.028 421.683 179.458C421.869 179.869 421.963 180.29 421.963 180.72C421.982 181.131 421.907 181.533 421.739 181.926C421.57 182.3 421.318 182.637 420.981 182.936C420.607 183.254 420.252 183.478 419.916 183.609C419.579 183.74 419.252 183.805 418.934 183.805C418.392 183.805 417.887 183.674 417.419 183.413C416.971 183.132 416.55 182.833 416.157 182.515C415.372 181.917 414.596 181.487 413.829 181.225C413.063 180.963 412.259 180.832 411.417 180.832C410.463 180.832 409.547 181.029 408.668 181.421C407.79 181.814 407.023 182.347 406.369 183.02C405.714 183.693 405.191 184.469 404.798 185.348C404.405 186.227 404.209 187.143 404.209 188.096L404.181 188.125Z" fill="white"/>
<path fill-rule="evenodd" clip-rule="evenodd" d="M404.498 162.432C402.939 160.873 400.411 160.873 398.852 162.432L394.336 166.948C391.53 169.754 386.98 169.754 384.174 166.948L380.222 162.996C378.663 161.437 376.136 161.437 374.577 162.996C373.018 164.555 373.018 167.083 374.577 168.642L378.529 172.594C384.453 178.518 394.057 178.518 399.982 172.594L404.498 168.077C406.057 166.518 406.057 163.991 404.498 162.432Z" fill="white"/>
<path fill-rule="evenodd" clip-rule="evenodd" d="M374.012 213.242C375.571 214.801 378.099 214.801 379.658 213.242L384.174 208.725C386.98 205.919 391.53 205.919 394.336 208.725L398.288 212.677C399.847 214.236 402.375 214.236 403.934 212.677C405.493 211.118 405.493 208.591 403.934 207.032L399.982 203.08C394.058 197.156 384.453 197.156 378.529 203.08L374.012 207.596C372.453 209.155 372.453 211.683 374.012 213.242Z" fill="white"/>
<path fill-rule="evenodd" clip-rule="evenodd" d="M363.851 203.08C362.292 201.521 362.292 198.993 363.851 197.434L368.367 192.918C371.173 190.111 371.173 185.562 368.367 182.756L364.415 178.804C362.856 177.245 362.856 174.717 364.415 173.158C365.974 171.599 368.502 171.599 370.061 173.158L374.013 177.11C379.937 183.034 379.937 192.639 374.013 198.563L369.496 203.08C367.937 204.639 365.41 204.639 363.851 203.08Z" fill="white"/>
<rect x="50.6548" y="158.525" width="21.5421" height="57.7022" rx="10.7711" fill="white"/>
<rect x="90.2769" y="176.606" width="21.5421" height="57.7022" rx="10.7711" transform="rotate(90 90.2769 176.606)" fill="white"/>
<path fill-rule="evenodd" clip-rule="evenodd" d="M153.07 159.998C155.227 159.998 156.975 161.746 156.975 163.903V170.151C156.975 174.033 160.122 177.179 164.004 177.179H169.471C171.627 177.179 173.376 178.928 173.376 181.084C173.376 183.241 171.627 184.989 169.471 184.989H164.004C155.809 184.989 149.166 178.346 149.166 170.151V163.903C149.166 161.746 150.914 159.998 153.07 159.998Z" fill="white"/>
<path fill-rule="evenodd" clip-rule="evenodd" d="M139.013 159.998C136.856 159.998 135.108 161.746 135.108 163.903V170.151C135.108 174.033 131.961 177.179 128.079 177.179H122.612C120.456 177.179 118.707 178.928 118.707 181.084C118.707 183.241 120.456 184.989 122.612 184.989H128.079C136.274 184.989 142.917 178.346 142.917 170.151V163.903C142.917 161.746 141.169 159.998 139.013 159.998Z" fill="white"/>
<path fill-rule="evenodd" clip-rule="evenodd" d="M153.07 216.228C155.227 216.228 156.975 214.48 156.975 212.323V206.075C156.975 202.193 160.122 199.046 164.004 199.046H169.471C171.627 199.046 173.376 197.298 173.376 195.142C173.376 192.985 171.627 191.237 169.471 191.237H164.004C155.809 191.237 149.166 197.88 149.166 206.075V212.323C149.166 214.48 150.914 216.228 153.07 216.228Z" fill="white"/>
<path fill-rule="evenodd" clip-rule="evenodd" d="M139.013 216.228C136.856 216.228 135.108 214.48 135.108 212.323V206.075C135.108 202.193 131.961 199.046 128.079 199.046H122.612C120.456 199.046 118.707 197.298 118.707 195.142C118.707 192.985 120.456 191.237 122.612 191.237H128.079C136.274 191.237 142.917 197.88 142.917 206.075V212.323C142.917 214.48 141.169 216.228 139.013 216.228Z" fill="white"/>
<path fill-rule="evenodd" clip-rule="evenodd" d="M234.533 159.998C236.69 159.998 238.438 161.746 238.438 163.903V170.151C238.438 174.033 241.585 177.179 245.467 177.179H250.934C253.09 177.179 254.839 178.928 254.839 181.084C254.839 183.241 253.09 184.989 250.934 184.989H245.467C237.272 184.989 230.628 178.346 230.628 170.151V163.903C230.628 161.746 232.377 159.998 234.533 159.998Z" fill="white" stroke="white" stroke-width="2" stroke-linecap="round" stroke-linejoin="bevel"/>
<path fill-rule="evenodd" clip-rule="evenodd" d="M220.476 159.998C218.319 159.998 216.571 161.746 216.571 163.903V170.151C216.571 174.033 213.424 177.179 209.542 177.179H204.075C201.919 177.179 200.17 178.928 200.17 181.084C200.17 183.241 201.919 184.989 204.075 184.989H209.542C217.737 184.989 224.38 178.346 224.38 170.151V163.903C224.38 161.746 222.632 159.998 220.476 159.998Z" fill="white" stroke="white" stroke-width="2" stroke-linecap="round" stroke-linejoin="bevel"/>
<path fill-rule="evenodd" clip-rule="evenodd" d="M234.533 216.228C236.69 216.228 238.438 214.48 238.438 212.323V206.075C238.438 202.193 241.585 199.046 245.467 199.046H250.934C253.09 199.046 254.839 197.298 254.839 195.142C254.839 192.985 253.09 191.237 250.934 191.237H245.467C237.272 191.237 230.628 197.88 230.628 206.075V212.323C230.628 214.48 232.377 216.228 234.533 216.228Z" fill="white" stroke="white" stroke-width="2" stroke-linecap="round" stroke-linejoin="bevel"/>
<path fill-rule="evenodd" clip-rule="evenodd" d="M220.476 216.228C218.319 216.228 216.571 214.48 216.571 212.323V206.075C216.571 202.193 213.424 199.046 209.542 199.046H204.075C201.919 199.046 200.17 197.298 200.17 195.142C200.17 192.985 201.919 191.237 204.075 191.237H209.542C217.737 191.237 224.38 197.88 224.38 206.075V212.323C224.38 214.48 222.632 216.228 220.476 216.228Z" fill="white" stroke="white" stroke-width="2" stroke-linecap="round" stroke-linejoin="bevel"/>
<path fill-rule="evenodd" clip-rule="evenodd" d="M290.394 163.262C291.919 161.737 294.391 161.737 295.916 163.262L300.334 167.68C303.079 170.425 307.529 170.425 310.274 167.68L314.14 163.815C315.665 162.29 318.137 162.29 319.662 163.815C321.187 165.339 321.187 167.812 319.662 169.337L315.797 173.202C310.002 178.997 300.607 178.997 294.812 173.202L290.394 168.785C288.869 167.26 288.869 164.787 290.394 163.262Z" fill="white"/>
<path fill-rule="evenodd" clip-rule="evenodd" d="M280.454 173.203C278.929 174.727 278.929 177.2 280.454 178.725L284.872 183.143C287.617 185.888 287.617 190.338 284.872 193.083L281.006 196.948C279.481 198.473 279.481 200.946 281.006 202.471C282.531 203.996 285.004 203.996 286.529 202.471L290.394 198.605C296.189 192.81 296.189 183.415 290.394 177.62L285.976 173.203C284.452 171.678 281.979 171.678 280.454 173.203Z" fill="white"/>
<path fill-rule="evenodd" clip-rule="evenodd" d="M330.156 203.023C331.681 201.498 331.681 199.025 330.156 197.5L325.738 193.083C322.993 190.338 322.993 185.887 325.738 183.143L329.603 179.277C331.128 177.752 331.128 175.28 329.603 173.755C328.079 172.23 325.606 172.23 324.081 173.755L320.216 177.62C314.421 183.415 314.421 192.81 320.216 198.605L324.633 203.023C326.158 204.548 328.631 204.548 330.156 203.023Z" fill="white"/>
<path fill-rule="evenodd" clip-rule="evenodd" d="M320.215 212.963C318.69 214.488 316.218 214.488 314.693 212.963L310.275 208.545C307.53 205.8 303.08 205.8 300.335 208.545L296.469 212.411C294.944 213.936 292.472 213.936 290.947 212.411C289.422 210.886 289.422 208.413 290.947 206.888L294.812 203.023C300.607 197.228 310.002 197.228 315.797 203.023L320.215 207.441C321.74 208.965 321.74 211.438 320.215 212.963Z" fill="white"/>
<path d="M404.181 325.125C404.181 326.003 404.358 326.873 404.714 327.733C405.088 328.593 405.583 329.369 406.2 330.061C406.836 330.734 407.575 331.286 408.416 331.716C409.257 332.146 410.164 332.37 411.137 332.389C412.146 332.389 413.035 332.267 413.801 332.024C414.586 331.762 415.372 331.304 416.157 330.65C416.531 330.332 416.942 330.042 417.391 329.78C417.859 329.5 418.364 329.36 418.906 329.36C419.224 329.36 419.56 329.435 419.916 329.584C420.271 329.715 420.635 329.939 421.009 330.257C421.327 330.538 421.561 330.874 421.711 331.267C421.879 331.641 421.954 332.043 421.935 332.473C421.935 332.884 421.841 333.296 421.654 333.707C421.486 334.118 421.224 334.511 420.869 334.885C419.71 336.063 418.326 336.961 416.718 337.578C415.129 338.195 413.455 338.503 411.698 338.503C409.828 338.503 408.07 338.167 406.425 337.494C404.779 336.802 403.339 335.857 402.105 334.661C400.871 333.464 399.899 332.062 399.188 330.454C398.478 328.827 398.123 327.079 398.123 325.209C398.141 325.19 398.151 325.171 398.151 325.153H398.123C398.123 323.283 398.478 321.534 399.188 319.908C399.899 318.262 400.871 316.841 402.105 315.644C403.339 314.429 404.779 313.475 406.425 312.784C408.07 312.092 409.828 311.746 411.698 311.746C413.455 311.746 415.129 312.045 416.718 312.643C418.326 313.223 419.71 314.102 420.869 315.28C421.224 315.635 421.496 316.028 421.683 316.458C421.869 316.869 421.963 317.29 421.963 317.72C421.982 318.131 421.907 318.533 421.739 318.926C421.57 319.3 421.318 319.637 420.981 319.936C420.607 320.254 420.252 320.478 419.916 320.609C419.579 320.74 419.252 320.805 418.934 320.805C418.392 320.805 417.887 320.674 417.419 320.413C416.971 320.132 416.55 319.833 416.157 319.515C415.372 318.917 414.596 318.487 413.829 318.225C413.063 317.963 412.259 317.832 411.417 317.832C410.463 317.832 409.547 318.029 408.668 318.421C407.79 318.814 407.023 319.347 406.369 320.02C405.714 320.693 405.191 321.469 404.798 322.348C404.405 323.227 404.209 324.143 404.209 325.096L404.181 325.125Z" fill="white"/>
<path fill-rule="evenodd" clip-rule="evenodd" d="M404.498 299.432C402.939 297.873 400.411 297.873 398.852 299.432L394.336 303.948C391.53 306.754 386.98 306.754 384.174 303.948L380.222 299.996C378.663 298.437 376.136 298.437 374.577 299.996C373.018 301.555 373.018 304.083 374.577 305.642L378.529 309.594C384.453 315.518 394.057 315.518 399.982 309.594L404.498 305.077C406.057 303.518 406.057 300.991 404.498 299.432Z" fill="white"/>
<path fill-rule="evenodd" clip-rule="evenodd" d="M374.012 350.242C375.571 351.801 378.099 351.801 379.658 350.242L384.174 345.725C386.98 342.919 391.53 342.919 394.336 345.725L398.288 349.677C399.847 351.236 402.375 351.236 403.934 349.677C405.493 348.118 405.493 345.591 403.934 344.032L399.982 340.08C394.058 334.156 384.453 334.156 378.529 340.08L374.012 344.596C372.453 346.155 372.453 348.683 374.012 350.242Z" fill="white"/>
<path fill-rule="evenodd" clip-rule="evenodd" d="M363.851 340.08C362.292 338.521 362.292 335.993 363.851 334.434L368.367 329.918C371.173 327.111 371.173 322.562 368.367 319.756L364.415 315.804C362.856 314.245 362.856 311.717 364.415 310.158C365.974 308.599 368.502 308.599 370.061 310.158L374.013 314.11C379.937 320.034 379.937 329.639 374.013 335.563L369.496 340.08C367.937 341.639 365.41 341.639 363.851 340.08Z" fill="white"/>
<rect x="126.655" y="295.525" width="21.5421" height="57.7022" rx="10.7711" fill="white"/>
<rect x="166.277" y="313.606" width="21.5421" height="57.7022" rx="10.7711" transform="rotate(90 166.277 313.606)" fill="white"/>
<path fill-rule="evenodd" clip-rule="evenodd" d="M71.0704 295.998C73.227 295.998 74.9752 297.746 74.9752 299.903V306.151C74.9752 310.033 78.1221 313.179 82.004 313.179H87.4708C89.6274 313.179 91.3756 314.928 91.3756 317.084C91.3756 319.241 89.6274 320.989 87.4708 320.989H82.004C73.8089 320.989 67.1655 314.346 67.1655 306.151V299.903C67.1655 297.746 68.9138 295.998 71.0704 295.998Z" fill="white"/>
<path fill-rule="evenodd" clip-rule="evenodd" d="M57.0126 295.998C54.856 295.998 53.1078 297.746 53.1078 299.903V306.151C53.1078 310.033 49.9609 313.179 46.079 313.179H40.6122C38.4556 313.179 36.7074 314.928 36.7074 317.084C36.7074 319.241 38.4556 320.989 40.6122 320.989H46.079C54.2741 320.989 60.9175 314.346 60.9175 306.151V299.903C60.9175 297.746 59.1692 295.998 57.0126 295.998Z" fill="white"/>
<path fill-rule="evenodd" clip-rule="evenodd" d="M71.0704 352.228C73.227 352.228 74.9752 350.48 74.9752 348.323V342.075C74.9752 338.193 78.1221 335.046 82.004 335.046H87.4708C89.6274 335.046 91.3756 333.298 91.3756 331.142C91.3756 328.985 89.6274 327.237 87.4708 327.237H82.004C73.8089 327.237 67.1655 333.88 67.1655 342.075V348.323C67.1655 350.48 68.9138 352.228 71.0704 352.228Z" fill="white"/>
<path fill-rule="evenodd" clip-rule="evenodd" d="M57.0126 352.228C54.856 352.228 53.1078 350.48 53.1078 348.323V342.075C53.1078 338.193 49.9609 335.046 46.079 335.046H40.6122C38.4556 335.046 36.7074 333.298 36.7074 331.142C36.7074 328.985 38.4556 327.237 40.6122 327.237H46.079C54.2741 327.237 60.9175 333.88 60.9175 342.075V348.323C60.9175 350.48 59.1692 352.228 57.0126 352.228Z" fill="white"/>
<path fill-rule="evenodd" clip-rule="evenodd" d="M234.533 296.998C236.69 296.998 238.438 298.746 238.438 300.903V307.151C238.438 311.033 241.585 314.179 245.467 314.179H250.934C253.09 314.179 254.839 315.928 254.839 318.084C254.839 320.241 253.09 321.989 250.934 321.989H245.467C237.272 321.989 230.628 315.346 230.628 307.151V300.903C230.628 298.746 232.377 296.998 234.533 296.998Z" fill="white" stroke="white" stroke-width="2" stroke-linecap="round" stroke-linejoin="bevel"/>
<path fill-rule="evenodd" clip-rule="evenodd" d="M220.476 296.998C218.319 296.998 216.571 298.746 216.571 300.903V307.151C216.571 311.033 213.424 314.179 209.542 314.179H204.075C201.919 314.179 200.17 315.928 200.17 318.084C200.17 320.241 201.919 321.989 204.075 321.989H209.542C217.737 321.989 224.38 315.346 224.38 307.151V300.903C224.38 298.746 222.632 296.998 220.476 296.998Z" fill="white" stroke="white" stroke-width="2" stroke-linecap="round" stroke-linejoin="bevel"/>
<path fill-rule="evenodd" clip-rule="evenodd" d="M234.533 353.228C236.69 353.228 238.438 351.48 238.438 349.323V343.075C238.438 339.193 241.585 336.046 245.467 336.046H250.934C253.09 336.046 254.839 334.298 254.839 332.142C254.839 329.985 253.09 328.237 250.934 328.237H245.467C237.272 328.237 230.628 334.88 230.628 343.075V349.323C230.628 351.48 232.377 353.228 234.533 353.228Z" fill="white" stroke="white" stroke-width="2" stroke-linecap="round" stroke-linejoin="bevel"/>
<path fill-rule="evenodd" clip-rule="evenodd" d="M220.476 353.228C218.319 353.228 216.571 351.48 216.571 349.323V343.075C216.571 339.193 213.424 336.046 209.542 336.046H204.075C201.919 336.046 200.17 334.298 200.17 332.142C200.17 329.985 201.919 328.237 204.075 328.237H209.542C217.737 328.237 224.38 334.88 224.38 343.075V349.323C224.38 351.48 222.632 353.228 220.476 353.228Z" fill="white" stroke="white" stroke-width="2" stroke-linecap="round" stroke-linejoin="bevel"/>
<path fill-rule="evenodd" clip-rule="evenodd" d="M290.394 300.262C291.919 298.737 294.391 298.737 295.916 300.262L300.334 304.68C303.079 307.425 307.529 307.425 310.274 304.68L314.14 300.815C315.665 299.29 318.137 299.29 319.662 300.815C321.187 302.339 321.187 304.812 319.662 306.337L315.797 310.202C310.002 315.997 300.607 315.997 294.812 310.202L290.394 305.785C288.869 304.26 288.869 301.787 290.394 300.262Z" fill="white"/>
<path fill-rule="evenodd" clip-rule="evenodd" d="M280.454 310.203C278.929 311.727 278.929 314.2 280.454 315.725L284.872 320.143C287.617 322.888 287.617 327.338 284.872 330.083L281.006 333.948C279.481 335.473 279.481 337.946 281.006 339.471C282.531 340.996 285.004 340.996 286.529 339.471L290.394 335.605C296.189 329.81 296.189 320.415 290.394 314.62L285.976 310.203C284.452 308.678 281.979 308.678 280.454 310.203Z" fill="white"/>
<path fill-rule="evenodd" clip-rule="evenodd" d="M330.156 340.023C331.681 338.498 331.681 336.025 330.156 334.5L325.738 330.083C322.993 327.338 322.993 322.887 325.738 320.143L329.603 316.277C331.128 314.752 331.128 312.28 329.603 310.755C328.079 309.23 325.606 309.23 324.081 310.755L320.216 314.62C314.421 320.415 314.421 329.81 320.216 335.605L324.633 340.023C326.158 341.548 328.631 341.548 330.156 340.023Z" fill="white"/>
<path fill-rule="evenodd" clip-rule="evenodd" d="M320.215 349.963C318.69 351.488 316.218 351.488 314.693 349.963L310.275 345.545C307.53 342.8 303.08 342.8 300.335 345.545L296.469 349.411C294.944 350.936 292.472 350.936 290.947 349.411C289.422 347.886 289.422 345.413 290.947 343.888L294.812 340.023C300.607 334.228 310.002 334.228 315.797 340.023L320.215 344.441C321.74 345.965 321.74 348.438 320.215 349.963Z" fill="white"/>
<path d="M60.6999 414.4L60 364.98C60 337.09 85.65 314 117.29 314H312.32C354.94 313 385.35 346.3 385.06 380.13L384.85 404.96C384.85 404.96 374.415 425.546 318.074 435.01C295.098 438.869 264.451 437.734 223.824 437.51C173.771 437.234 149.023 441.283 124.574 437.51C80.5138 430.71 60.6999 414.4 60.6999 414.4Z" fill="#059669"/>
<path d="M103.5 156.01H105.5V185.01H103.5V156.01Z" fill="#FFFBF7"/>
<path d="M259.5 188.33V155.99C259.5 138.36 252.52 120.68 239.37 107.22C226.22 93.76 208.58 87 191.35 87H151.26C143.47 87 135.69 90.01 129.75 95.96C123.8 101.91 120.95 110.62 120.95 118.42C120.94 118.42 202.5 194.16 259.5 188.33Z" fill="black"/>
<path d="M97.9601 190.39C101.81 173.39 114.14 141.01 120.69 118.01H178.78C183.03 118.01 186.84 119.32 190.08 122.56C193.32 125.81 194.5 129.74 194.5 133.99V189.34L218.5 188.46V165.07C218.5 158.53 223.82 153.01 230.36 153.01H230.65C237.19 153.01 241.51 158.54 241.51 165.07V188.09L258.64 188.34L259.14 314.82C230.38 341.67 183.15 338.78 156.36 314.51L156.12 269.84L128.35 269.96C124.36 269.96 120.38 268.09 117.33 265.06C114.28 262.02 113.27 246.93 113.24 242.94C113.5 231.61 113.52 219.98 113.55 208.41C114.05 204.3 92.6701 203.22 97.9601 190.39Z" fill="#E1AC7B"/>
<path d="M104.5 156.01H222.21L220.37 159.01H154.5V175.46C154.5 182.34 148.99 189.01 142.06 189.01H126.23C119.62 189.01 112.5 182.56 112.5 175.46V159.01H104.5V156.01ZM115.5 175.46C115.5 180.91 120.96 186.01 126.23 186.01H142.06C147.47 186.01 151.5 180.82 151.5 175.46V159.01H115.5V175.46Z" fill="#ECFBF6"/>
<path d="M113.24 242.01H135.48C140.81 242.01 145.14 237.85 145.14 232.51C145.14 227.17 140.81 223.01 135.48 223.01H113.4L113.51 211.01H124.93H145.5H180.86C184.78 211.01 187.86 208.46 190.84 205.47C193.83 202.48 194.49 197.51 194.49 193.59V160.01H218.49V238.71C218.49 247.57 215.17 257.77 208.4 264.53C201.64 271.29 192.83 276.01 183.97 276.01H129.4C113.62 275.01 113.54 258.96 113.16 251.54L113.24 242.01Z" fill="black"/>
</svg>
