<svg width="361" height="48" viewBox="0 0 361 48" fill="none" xmlns="http://www.w3.org/2000/svg">
<path fill-rule="evenodd" clip-rule="evenodd" d="M37.7666 1.05596C36.3588 -0.351988 34.076 -0.351988 32.6678 1.05596L28.5889 5.13494C26.0546 7.66931 21.9456 7.66931 19.4113 5.13494L15.8422 1.56585C14.4342 0.157896 12.1515 0.157896 10.7435 1.56585C9.33551 2.97384 9.33551 5.25661 10.7435 6.66456L14.3126 10.2337C19.6629 15.584 28.3375 15.584 33.6878 10.2337L37.7666 6.15468C39.1745 4.74672 39.1745 2.46395 37.7666 1.05596Z" fill="#7C7C7C"/>
<path fill-rule="evenodd" clip-rule="evenodd" d="M10.2337 46.9441C11.6417 48.352 13.9245 48.352 15.3324 46.9441L19.4114 42.8652C21.9457 40.331 26.0547 40.331 28.5891 42.8652L32.1581 46.4343C33.5663 47.8421 35.8488 47.8421 37.257 46.4343C38.6648 45.0264 38.6648 42.7436 37.257 41.3354L33.6879 37.7664C28.3376 32.4161 19.663 32.4161 14.3127 37.7664L10.2337 41.8453C8.82574 43.2535 8.82574 45.5363 10.2337 46.9441Z" fill="#7C7C7C"/>
<path fill-rule="evenodd" clip-rule="evenodd" d="M1.05596 37.7664C-0.351988 36.3586 -0.351988 34.0758 1.05596 32.6676L5.13494 28.5887C7.66931 26.0544 7.66931 21.9453 5.13494 19.4111L1.56585 15.8419C0.157897 14.434 0.157897 12.1512 1.56585 10.7432C2.97384 9.33527 5.25661 9.33527 6.66456 10.7432L10.2337 14.3123C15.584 19.6626 15.584 28.3372 10.2337 33.6876L6.15471 37.7664C4.74672 39.1743 2.46395 39.1743 1.05596 37.7664Z" fill="#059669"/>
<path d="M35.2402 24.776C35.2402 25.528 35.3922 26.272 35.6962 27.008C36.0162 27.744 36.4402 28.408 36.9682 29C37.5122 29.576 38.1442 30.048 38.8642 30.416C39.5842 30.784 40.3602 30.976 41.1922 30.992C42.0562 30.992 42.8162 30.888 43.4722 30.68C44.1442 30.456 44.8162 30.064 45.4882 29.504C45.8082 29.232 46.1602 28.984 46.5442 28.76C46.9442 28.52 47.3762 28.4 47.8402 28.4C48.1122 28.4 48.4002 28.464 48.7042 28.592C49.0082 28.704 49.3202 28.896 49.6402 29.168C49.9122 29.408 50.1122 29.696 50.2402 30.032C50.3842 30.352 50.4482 30.696 50.4322 31.064C50.4322 31.416 50.3522 31.768 50.1922 32.12C50.0482 32.472 49.8242 32.808 49.5202 33.128C48.5282 34.136 47.3442 34.904 45.9682 35.432C44.6082 35.96 43.1762 36.224 41.6722 36.224C40.0722 36.224 38.5682 35.936 37.1602 35.36C35.7522 34.768 34.5202 33.96 33.4642 32.936C32.4082 31.912 31.5762 30.712 30.9682 29.336C30.3602 27.944 30.0562 26.448 30.0562 24.848C30.0722 24.832 30.0802 24.816 30.0802 24.8H30.0562C30.0562 23.2 30.3602 21.704 30.9682 20.312C31.5762 18.904 32.4082 17.688 33.4642 16.664C34.5202 15.624 35.7522 14.808 37.1602 14.216C38.5682 13.624 40.0722 13.328 41.6722 13.328C43.1762 13.328 44.6082 13.584 45.9682 14.096C47.3442 14.592 48.5282 15.344 49.5202 16.352C49.8242 16.656 50.0562 16.992 50.2162 17.36C50.3762 17.712 50.4562 18.072 50.4562 18.44C50.4722 18.792 50.4082 19.136 50.2642 19.472C50.1202 19.792 49.9042 20.08 49.6162 20.336C49.2962 20.608 48.9922 20.8 48.7042 20.912C48.4162 21.024 48.1362 21.08 47.8642 21.08C47.4002 21.08 46.9682 20.968 46.5682 20.744C46.1842 20.504 45.8242 20.248 45.4882 19.976C44.8162 19.464 44.1522 19.096 43.4962 18.872C42.8402 18.648 42.1522 18.536 41.4322 18.536C40.6162 18.536 39.8322 18.704 39.0802 19.04C38.3282 19.376 37.6722 19.832 37.1122 20.408C36.5522 20.984 36.1042 21.648 35.7682 22.4C35.4322 23.152 35.2642 23.936 35.2642 24.752L35.2402 24.776Z" fill="#7C7C7C"/>
<path d="M59.0305 33.368C59.0305 33.72 58.9665 34.056 58.8385 34.376C58.7105 34.696 58.5265 34.968 58.2865 35.192C58.0625 35.416 57.7985 35.6 57.4945 35.744C57.1905 35.872 56.8625 35.936 56.5105 35.936C56.1425 35.936 55.7905 35.872 55.4545 35.744C55.1345 35.6 54.8545 35.416 54.6145 35.192C54.3745 34.968 54.1825 34.696 54.0385 34.376C53.8945 34.056 53.8225 33.72 53.8225 33.368V25.616C53.8225 23.968 54.1345 22.416 54.7585 20.96C55.3985 19.504 56.2625 18.232 57.3505 17.144C58.4385 16.056 59.7105 15.2 61.1665 14.576C62.6225 13.936 64.1665 13.616 65.7985 13.616H65.8465C66.7105 13.616 67.3745 13.864 67.8385 14.36C68.3185 14.84 68.5585 15.456 68.5585 16.208C68.5585 16.576 68.4865 16.92 68.3425 17.24C68.1985 17.56 67.9985 17.84 67.7425 18.08C67.5025 18.304 67.2145 18.488 66.8785 18.632C66.5585 18.76 66.2145 18.824 65.8465 18.824H65.7985C64.8865 18.824 64.0145 19 63.1825 19.352C62.3665 19.704 61.6545 20.184 61.0465 20.792C60.4385 21.4 59.9505 22.112 59.5825 22.928C59.2145 23.744 59.0305 24.616 59.0305 25.544V33.368Z" fill="#7C7C7C"/>
<path d="M69.3843 24.776C69.3843 23.192 69.6883 21.712 70.2963 20.336C70.9043 18.944 71.7283 17.728 72.7683 16.688C73.8083 15.648 75.0163 14.832 76.3923 14.24C77.7843 13.632 79.2643 13.328 80.8323 13.328C82.4163 13.328 83.9043 13.632 85.2963 14.24C86.6883 14.832 87.8963 15.648 88.9203 16.688C89.9603 17.728 90.7763 18.944 91.3683 20.336C91.9603 21.712 92.2563 23.192 92.2563 24.776V33.272C92.2563 33.64 92.1843 33.984 92.0403 34.304C91.9123 34.624 91.7283 34.904 91.4883 35.144C91.2483 35.384 90.9603 35.576 90.6243 35.72C90.3043 35.864 89.9603 35.936 89.5923 35.936C88.9683 35.936 88.4403 35.752 88.0083 35.384C87.5763 35.016 87.2883 34.552 87.1443 33.992C86.2323 34.68 85.2403 35.224 84.1683 35.624C83.1123 36.024 82.0003 36.224 80.8323 36.224C79.2643 36.224 77.7843 35.928 76.3923 35.336C75.0163 34.728 73.8083 33.904 72.7683 32.864C71.7283 31.824 70.9043 30.608 70.2963 29.216C69.6883 27.824 69.3843 26.344 69.3843 24.776ZM74.5923 24.776C74.5923 25.624 74.7523 26.432 75.0723 27.2C75.4083 27.952 75.8563 28.616 76.4163 29.192C76.9923 29.752 77.6563 30.2 78.4083 30.536C79.1603 30.856 79.9683 31.016 80.8323 31.016C81.6963 31.016 82.5043 30.856 83.2563 30.536C84.0243 30.2 84.6883 29.752 85.2483 29.192C85.8083 28.616 86.2483 27.952 86.5683 27.2C86.8883 26.432 87.0483 25.624 87.0483 24.776C87.0483 23.912 86.8883 23.104 86.5683 22.352C86.2483 21.584 85.8083 20.92 85.2483 20.36C84.6883 19.8 84.0243 19.36 83.2563 19.04C82.5043 18.704 81.6963 18.536 80.8323 18.536C79.9843 18.536 79.1763 18.704 78.4083 19.04C77.6563 19.36 76.9923 19.8 76.4163 20.36C75.8563 20.92 75.4083 21.584 75.0723 22.352C74.7523 23.104 74.5923 23.912 74.5923 24.776Z" fill="#7C7C7C"/>
<path d="M118.194 33.416C118.194 33.784 118.122 34.128 117.978 34.448C117.85 34.752 117.674 35.024 117.45 35.264C117.226 35.488 116.954 35.664 116.634 35.792C116.33 35.92 116.002 35.984 115.65 35.984C115.298 35.984 114.954 35.92 114.618 35.792C114.298 35.664 114.018 35.488 113.778 35.264C113.538 35.024 113.346 34.752 113.202 34.448C113.058 34.128 112.986 33.784 112.986 33.416V24.488C112.986 24.36 112.994 24.264 113.01 24.2C112.978 23.416 112.818 22.68 112.53 21.992C112.242 21.304 111.85 20.704 111.354 20.192C110.858 19.68 110.274 19.28 109.602 18.992C108.946 18.688 108.218 18.536 107.418 18.536C106.602 18.536 105.85 18.688 105.162 18.992C104.474 19.28 103.882 19.688 103.386 20.216C102.906 20.744 102.522 21.368 102.234 22.088C101.962 22.792 101.826 23.552 101.826 24.368V33.416C101.826 33.784 101.762 34.128 101.634 34.448C101.506 34.752 101.322 35.024 101.082 35.264C100.858 35.488 100.594 35.664 100.29 35.792C99.9863 35.92 99.6503 35.984 99.2823 35.984C98.9303 35.984 98.5943 35.92 98.2743 35.792C97.9543 35.664 97.6663 35.488 97.4103 35.264C97.1703 35.024 96.9783 34.752 96.8343 34.448C96.6903 34.128 96.6183 33.784 96.6183 33.416V24.368C96.6183 22.832 96.8903 21.4 97.4343 20.072C97.9943 18.728 98.7543 17.56 99.7143 16.568C100.69 15.56 101.834 14.768 103.146 14.192C104.474 13.616 105.898 13.328 107.418 13.328C108.954 13.328 110.378 13.616 111.69 14.192C113.002 14.768 114.138 15.56 115.098 16.568C116.058 17.56 116.81 18.728 117.354 20.072C117.914 21.4 118.194 22.832 118.194 24.368V33.416Z" fill="#7C7C7C"/>
<path d="M122.835 7.712C122.835 7.328 122.899 6.976 123.027 6.656C123.171 6.32 123.355 6.032 123.579 5.792C123.819 5.536 124.099 5.344 124.419 5.216C124.739 5.072 125.083 5 125.451 5C125.835 5 126.179 5.072 126.483 5.216C126.803 5.344 127.075 5.536 127.299 5.792C127.539 6.032 127.723 6.32 127.851 6.656C127.979 6.976 128.043 7.328 128.043 7.712V15.2C128.955 14.608 129.931 14.152 130.971 13.832C132.027 13.496 133.131 13.328 134.283 13.328C135.867 13.328 137.347 13.632 138.723 14.24C140.115 14.832 141.323 15.648 142.347 16.688C143.387 17.712 144.203 18.92 144.795 20.312C145.403 21.704 145.707 23.192 145.707 24.776C145.707 26.344 145.403 27.824 144.795 29.216C144.203 30.608 143.387 31.824 142.347 32.864C141.323 33.904 140.115 34.728 138.723 35.336C137.347 35.928 135.867 36.224 134.283 36.224C132.715 36.224 131.235 35.928 129.843 35.336C128.451 34.728 127.235 33.904 126.195 32.864C125.155 31.824 124.331 30.608 123.723 29.216C123.131 27.824 122.835 26.344 122.835 24.776V7.712ZM128.043 24.776C128.043 25.624 128.203 26.432 128.523 27.2C128.859 27.952 129.307 28.616 129.867 29.192C130.443 29.752 131.107 30.2 131.859 30.536C132.611 30.856 133.419 31.016 134.283 31.016C135.147 31.016 135.955 30.856 136.707 30.536C137.459 30.2 138.115 29.752 138.675 29.192C139.251 28.616 139.699 27.952 140.019 27.2C140.339 26.432 140.499 25.624 140.499 24.776C140.499 23.912 140.339 23.104 140.019 22.352C139.699 21.584 139.251 20.92 138.675 20.36C138.115 19.8 137.459 19.36 136.707 19.04C135.955 18.704 135.147 18.536 134.283 18.536C133.419 18.536 132.611 18.704 131.859 19.04C131.107 19.36 130.443 19.8 129.867 20.36C129.307 20.92 128.859 21.584 128.523 22.352C128.203 23.104 128.043 23.912 128.043 24.776Z" fill="#7C7C7C"/>
<path d="M153.614 27.104C153.822 27.696 154.11 28.24 154.478 28.736C154.862 29.216 155.302 29.632 155.798 29.984C156.294 30.32 156.838 30.584 157.43 30.776C158.022 30.952 158.646 31.04 159.302 31.04C160.95 31.04 162.246 30.608 163.19 29.744C163.51 29.52 163.822 29.36 164.126 29.264C164.43 29.152 164.718 29.096 164.99 29.096C165.438 29.096 165.838 29.216 166.19 29.456C166.542 29.68 166.83 29.976 167.054 30.344C167.214 30.6 167.326 30.88 167.39 31.184C167.47 31.472 167.486 31.768 167.438 32.072C167.406 32.376 167.31 32.68 167.15 32.984C167.006 33.272 166.782 33.536 166.478 33.776C166.126 34.096 165.726 34.408 165.278 34.712C164.83 35 164.31 35.256 163.718 35.48C163.142 35.704 162.486 35.88 161.75 36.008C161.03 36.152 160.214 36.224 159.302 36.224C157.718 36.224 156.23 35.928 154.838 35.336C153.446 34.728 152.23 33.904 151.19 32.864C150.15 31.824 149.326 30.616 148.718 29.24C148.11 27.848 147.806 26.36 147.806 24.776C147.806 23.192 148.11 21.704 148.718 20.312C149.326 18.92 150.15 17.712 151.19 16.688C152.23 15.648 153.446 14.832 154.838 14.24C156.23 13.632 157.718 13.328 159.302 13.328C160.87 13.328 162.342 13.624 163.718 14.216C165.11 14.808 166.326 15.616 167.366 16.64C168.422 17.648 169.254 18.84 169.862 20.216C170.486 21.592 170.806 23.064 170.822 24.632C170.822 25.368 170.582 25.968 170.102 26.432C169.638 26.88 169.022 27.104 168.254 27.104H153.614ZM165.47 22.784C165.294 22.128 165.014 21.536 164.63 21.008C164.262 20.48 163.814 20.032 163.286 19.664C162.758 19.296 162.166 19.016 161.51 18.824C160.854 18.632 160.158 18.536 159.422 18.536C158.686 18.536 157.99 18.64 157.334 18.848C156.694 19.04 156.11 19.328 155.582 19.712C155.07 20.08 154.63 20.528 154.262 21.056C153.894 21.568 153.622 22.144 153.446 22.784H165.47Z" fill="#7C7C7C"/>
<path d="M179.077 33.368C179.077 33.72 179.013 34.056 178.885 34.376C178.757 34.696 178.573 34.968 178.333 35.192C178.109 35.416 177.845 35.6 177.541 35.744C177.237 35.872 176.909 35.936 176.557 35.936C176.189 35.936 175.837 35.872 175.501 35.744C175.181 35.6 174.901 35.416 174.661 35.192C174.421 34.968 174.229 34.696 174.085 34.376C173.941 34.056 173.869 33.72 173.869 33.368V25.616C173.869 23.968 174.181 22.416 174.805 20.96C175.445 19.504 176.309 18.232 177.397 17.144C178.485 16.056 179.757 15.2 181.213 14.576C182.669 13.936 184.213 13.616 185.845 13.616H185.893C186.757 13.616 187.421 13.864 187.885 14.36C188.365 14.84 188.605 15.456 188.605 16.208C188.605 16.576 188.533 16.92 188.389 17.24C188.245 17.56 188.045 17.84 187.789 18.08C187.549 18.304 187.261 18.488 186.925 18.632C186.605 18.76 186.261 18.824 185.893 18.824H185.845C184.933 18.824 184.061 19 183.229 19.352C182.413 19.704 181.701 20.184 181.093 20.792C180.485 21.4 179.997 22.112 179.629 22.928C179.261 23.744 179.077 24.616 179.077 25.544V33.368Z" fill="#7C7C7C"/>
<path d="M196.515 33.368C196.515 33.72 196.451 34.056 196.323 34.376C196.195 34.696 196.011 34.968 195.771 35.192C195.547 35.416 195.283 35.6 194.979 35.744C194.675 35.872 194.347 35.936 193.995 35.936C193.627 35.936 193.275 35.872 192.939 35.744C192.619 35.6 192.339 35.416 192.099 35.192C191.859 34.968 191.667 34.696 191.523 34.376C191.379 34.056 191.307 33.72 191.307 33.368V25.616C191.307 23.968 191.619 22.416 192.243 20.96C192.883 19.504 193.747 18.232 194.835 17.144C195.923 16.056 197.195 15.2 198.651 14.576C200.107 13.936 201.651 13.616 203.283 13.616H203.331C204.195 13.616 204.859 13.864 205.323 14.36C205.803 14.84 206.043 15.456 206.043 16.208C206.043 16.576 205.971 16.92 205.827 17.24C205.683 17.56 205.483 17.84 205.227 18.08C204.987 18.304 204.699 18.488 204.363 18.632C204.043 18.76 203.699 18.824 203.331 18.824H203.283C202.371 18.824 201.499 19 200.667 19.352C199.851 19.704 199.139 20.184 198.531 20.792C197.923 21.4 197.435 22.112 197.067 22.928C196.699 23.744 196.515 24.616 196.515 25.544V33.368Z" fill="#7C7C7C"/>
<path d="M214 25.184C214 26 214.152 26.768 214.456 27.488C214.76 28.192 215.176 28.808 215.704 29.336C216.232 29.848 216.856 30.256 217.576 30.56C218.296 30.848 219.064 30.992 219.88 30.992C220.696 30.992 221.456 30.84 222.16 30.536C222.88 30.216 223.496 29.792 224.008 29.264C224.536 28.72 224.952 28.088 225.256 27.368C225.56 26.648 225.712 25.872 225.712 25.04V16.208C225.712 15.856 225.784 15.528 225.928 15.224C226.072 14.904 226.264 14.624 226.504 14.384C226.744 14.144 227.024 13.96 227.344 13.832C227.68 13.688 228.024 13.616 228.376 13.616C228.744 13.616 229.08 13.688 229.384 13.832C229.688 13.96 229.952 14.144 230.176 14.384C230.416 14.624 230.6 14.904 230.728 15.224C230.856 15.528 230.92 15.856 230.92 16.208V25.136C230.92 26.448 230.704 27.696 230.272 28.88C229.84 30.048 229.248 31.104 228.496 32.048C227.744 32.992 226.848 33.8 225.808 34.472C224.768 35.144 223.64 35.624 222.424 35.912V41.432C222.424 41.8 222.352 42.144 222.208 42.464C222.08 42.784 221.896 43.056 221.656 43.28C221.416 43.52 221.136 43.704 220.816 43.832C220.512 43.976 220.184 44.048 219.832 44.048C219.08 44.048 218.456 43.8 217.96 43.304C217.464 42.808 217.216 42.184 217.216 41.432V35.888C216 35.584 214.88 35.096 213.856 34.424C212.832 33.752 211.944 32.944 211.192 32C210.44 31.056 209.848 30 209.416 28.832C209 27.664 208.792 26.432 208.792 25.136V16.208C208.792 15.856 208.856 15.528 208.984 15.224C209.128 14.904 209.312 14.624 209.536 14.384C209.776 14.144 210.056 13.96 210.376 13.832C210.696 13.688 211.032 13.616 211.384 13.616C211.736 13.616 212.072 13.688 212.392 13.832C212.712 13.96 212.992 14.144 213.232 14.384C213.472 14.624 213.656 14.904 213.784 15.224C213.928 15.528 214 15.856 214 16.208V25.184Z" fill="#7C7C7C"/>
<path d="M238.04 24.776C238.04 23.192 238.344 21.712 238.952 20.336C239.56 18.944 240.384 17.728 241.424 16.688C242.464 15.648 243.672 14.832 245.048 14.24C246.44 13.632 247.92 13.328 249.488 13.328C251.072 13.328 252.56 13.632 253.952 14.24C255.344 14.832 256.552 15.648 257.576 16.688C258.616 17.728 259.432 18.944 260.024 20.336C260.616 21.712 260.912 23.192 260.912 24.776C260.912 26.344 260.616 27.824 260.024 29.216C259.432 30.608 258.616 31.824 257.576 32.864C256.552 33.904 255.344 34.728 253.952 35.336C252.56 35.928 251.072 36.224 249.488 36.224C248.336 36.224 247.232 36.064 246.176 35.744C245.136 35.408 244.16 34.944 243.248 34.352V41.336C243.248 41.72 243.184 42.072 243.056 42.392C242.944 42.728 242.776 43.016 242.552 43.256C242.328 43.496 242.056 43.688 241.736 43.832C241.432 43.976 241.088 44.048 240.704 44.048C240.336 44.048 239.992 43.976 239.672 43.832C239.352 43.688 239.072 43.496 238.832 43.256C238.592 43.016 238.4 42.728 238.256 42.392C238.112 42.072 238.04 41.72 238.04 41.336V24.776ZM243.248 24.776C243.248 25.624 243.408 26.432 243.728 27.2C244.064 27.952 244.512 28.616 245.072 29.192C245.648 29.752 246.312 30.2 247.064 30.536C247.816 30.856 248.624 31.016 249.488 31.016C250.352 31.016 251.16 30.856 251.912 30.536C252.68 30.2 253.344 29.752 253.904 29.192C254.464 28.616 254.904 27.952 255.224 27.2C255.544 26.432 255.704 25.624 255.704 24.776C255.704 23.912 255.544 23.104 255.224 22.352C254.904 21.584 254.464 20.92 253.904 20.36C253.344 19.8 252.68 19.36 251.912 19.04C251.16 18.704 250.352 18.536 249.488 18.536C248.64 18.536 247.832 18.704 247.064 19.04C246.312 19.36 245.648 19.8 245.072 20.36C244.512 20.92 244.064 21.584 243.728 22.352C243.408 23.104 243.248 23.912 243.248 24.776Z" fill="#059669"/>
<path d="M269.313 25.16C269.313 25.976 269.457 26.744 269.745 27.464C270.049 28.168 270.457 28.784 270.969 29.312C271.497 29.84 272.113 30.256 272.817 30.56C273.537 30.864 274.305 31.016 275.121 31.016C275.953 31.016 276.697 30.864 277.353 30.56C278.009 30.24 278.561 29.816 279.009 29.288C279.473 28.744 279.825 28.112 280.065 27.392C280.321 26.672 280.449 25.904 280.449 25.088V16.208C280.449 15.84 280.521 15.504 280.665 15.2C280.809 14.88 281.001 14.608 281.241 14.384C281.497 14.144 281.785 13.96 282.105 13.832C282.425 13.688 282.761 13.616 283.113 13.616C283.481 13.616 283.817 13.688 284.121 13.832C284.425 13.96 284.689 14.144 284.913 14.384C285.153 14.608 285.337 14.88 285.465 15.2C285.593 15.504 285.657 15.84 285.657 16.208V25.016C285.657 26.552 285.393 28 284.865 29.36C284.353 30.72 283.633 31.912 282.705 32.936C281.777 33.944 280.665 34.744 279.369 35.336C278.073 35.928 276.657 36.224 275.121 36.224C273.585 36.224 272.145 35.936 270.801 35.36C269.473 34.768 268.313 33.968 267.321 32.96C266.329 31.952 265.545 30.776 264.969 29.432C264.393 28.088 264.105 26.656 264.105 25.136V16.208C264.105 15.84 264.169 15.504 264.297 15.2C264.441 14.88 264.625 14.608 264.849 14.384C265.089 14.144 265.369 13.96 265.689 13.832C266.009 13.688 266.345 13.616 266.697 13.616C267.049 13.616 267.385 13.688 267.705 13.832C268.025 13.96 268.305 14.144 268.545 14.384C268.785 14.608 268.969 14.88 269.097 15.2C269.241 15.504 269.313 15.84 269.313 16.208V25.16Z" fill="#059669"/>
<path d="M311.413 33.416C311.413 33.784 311.341 34.128 311.197 34.448C311.069 34.752 310.893 35.024 310.669 35.264C310.445 35.488 310.173 35.664 309.853 35.792C309.549 35.92 309.221 35.984 308.869 35.984C308.517 35.984 308.173 35.92 307.837 35.792C307.517 35.664 307.237 35.488 306.997 35.264C306.757 35.024 306.565 34.752 306.421 34.448C306.277 34.128 306.205 33.784 306.205 33.416V24.488C306.205 24.36 306.213 24.264 306.229 24.2C306.197 23.416 306.037 22.68 305.749 21.992C305.461 21.304 305.069 20.704 304.573 20.192C304.077 19.68 303.493 19.28 302.821 18.992C302.165 18.688 301.437 18.536 300.637 18.536C299.821 18.536 299.069 18.688 298.381 18.992C297.693 19.28 297.101 19.688 296.605 20.216C296.125 20.744 295.741 21.368 295.453 22.088C295.181 22.792 295.045 23.552 295.045 24.368V33.416C295.045 33.784 294.981 34.128 294.853 34.448C294.725 34.752 294.541 35.024 294.301 35.264C294.077 35.488 293.813 35.664 293.509 35.792C293.205 35.92 292.869 35.984 292.501 35.984C292.149 35.984 291.813 35.92 291.493 35.792C291.173 35.664 290.885 35.488 290.629 35.264C290.389 35.024 290.197 34.752 290.053 34.448C289.909 34.128 289.837 33.784 289.837 33.416V24.368C289.837 22.832 290.109 21.4 290.653 20.072C291.213 18.728 291.973 17.56 292.933 16.568C293.909 15.56 295.053 14.768 296.365 14.192C297.693 13.616 299.117 13.328 300.637 13.328C302.173 13.328 303.597 13.616 304.909 14.192C306.221 14.768 307.357 15.56 308.317 16.568C309.277 17.56 310.029 18.728 310.573 20.072C311.133 21.4 311.413 22.832 311.413 24.368V33.416Z" fill="#059669"/>
<path d="M319.678 24.776C319.678 25.528 319.83 26.272 320.134 27.008C320.454 27.744 320.878 28.408 321.406 29C321.95 29.576 322.582 30.048 323.302 30.416C324.022 30.784 324.798 30.976 325.63 30.992C326.494 30.992 327.254 30.888 327.91 30.68C328.582 30.456 329.254 30.064 329.926 29.504C330.246 29.232 330.598 28.984 330.982 28.76C331.382 28.52 331.814 28.4 332.278 28.4C332.55 28.4 332.838 28.464 333.142 28.592C333.446 28.704 333.758 28.896 334.078 29.168C334.35 29.408 334.55 29.696 334.678 30.032C334.822 30.352 334.886 30.696 334.87 31.064C334.87 31.416 334.79 31.768 334.63 32.12C334.486 32.472 334.262 32.808 333.958 33.128C332.966 34.136 331.782 34.904 330.406 35.432C329.046 35.96 327.614 36.224 326.11 36.224C324.51 36.224 323.006 35.936 321.598 35.36C320.19 34.768 318.958 33.96 317.902 32.936C316.846 31.912 316.014 30.712 315.406 29.336C314.798 27.944 314.494 26.448 314.494 24.848C314.51 24.832 314.518 24.816 314.518 24.8H314.494C314.494 23.2 314.798 21.704 315.406 20.312C316.014 18.904 316.846 17.688 317.902 16.664C318.958 15.624 320.19 14.808 321.598 14.216C323.006 13.624 324.51 13.328 326.11 13.328C327.614 13.328 329.046 13.584 330.406 14.096C331.782 14.592 332.966 15.344 333.958 16.352C334.262 16.656 334.494 16.992 334.654 17.36C334.814 17.712 334.894 18.072 334.894 18.44C334.91 18.792 334.846 19.136 334.702 19.472C334.558 19.792 334.342 20.08 334.054 20.336C333.734 20.608 333.43 20.8 333.142 20.912C332.854 21.024 332.574 21.08 332.302 21.08C331.838 21.08 331.406 20.968 331.006 20.744C330.622 20.504 330.262 20.248 329.926 19.976C329.254 19.464 328.59 19.096 327.934 18.872C327.278 18.648 326.59 18.536 325.87 18.536C325.054 18.536 324.27 18.704 323.518 19.04C322.766 19.376 322.11 19.832 321.55 20.408C320.99 20.984 320.542 21.648 320.206 22.4C319.87 23.152 319.702 23.936 319.702 24.752L319.678 24.776Z" fill="#059669"/>
<path d="M360.364 33.392C360.364 33.744 360.292 34.08 360.148 34.4C360.02 34.704 359.836 34.976 359.596 35.216C359.356 35.44 359.076 35.616 358.756 35.744C358.452 35.872 358.116 35.936 357.748 35.936C357.396 35.936 357.06 35.872 356.74 35.744C356.436 35.616 356.164 35.44 355.924 35.216C355.684 34.976 355.492 34.704 355.348 34.4C355.22 34.08 355.156 33.744 355.156 33.392V24.536C355.156 24.488 355.156 24.44 355.156 24.392C355.156 24.328 355.164 24.272 355.18 24.224C355.164 23.424 355.02 22.68 354.748 21.992C354.476 21.304 354.1 20.704 353.62 20.192C353.156 19.68 352.596 19.28 351.94 18.992C351.284 18.688 350.556 18.536 349.756 18.536C348.94 18.536 348.18 18.68 347.476 18.968C346.772 19.24 346.164 19.632 345.652 20.144C345.14 20.64 344.732 21.24 344.428 21.944C344.14 22.632 343.996 23.392 343.996 24.224V33.344C343.996 33.696 343.924 34.032 343.78 34.352C343.652 34.672 343.468 34.952 343.228 35.192C343.004 35.416 342.732 35.6 342.412 35.744C342.108 35.872 341.772 35.936 341.404 35.936C341.036 35.936 340.692 35.872 340.372 35.744C340.052 35.6 339.772 35.416 339.532 35.192C339.308 34.952 339.124 34.672 338.98 34.352C338.852 34.032 338.788 33.696 338.788 33.344V7.64C338.788 7.272 338.852 6.928 338.98 6.608C339.124 6.288 339.316 6.008 339.556 5.768C339.796 5.528 340.076 5.344 340.396 5.216C340.716 5.072 341.052 5 341.404 5C341.772 5 342.108 5.072 342.412 5.216C342.732 5.344 343.004 5.528 343.228 5.768C343.468 6.008 343.652 6.288 343.78 6.608C343.924 6.928 343.996 7.272 343.996 7.64V15.464C344.828 14.792 345.724 14.272 346.684 13.904C347.66 13.52 348.684 13.328 349.756 13.328C351.276 13.328 352.684 13.624 353.98 14.216C355.276 14.792 356.396 15.584 357.34 16.592C358.284 17.584 359.02 18.752 359.548 20.096C360.092 21.44 360.364 22.872 360.364 24.392V33.392Z" fill="#059669"/>
</svg>
