<svg width="91" height="88" viewBox="0 0 91 88" fill="none" xmlns="http://www.w3.org/2000/svg">
<path d="M0 44C0 19.6995 19.6995 0 44 0H47C71.3005 0 91 19.6995 91 44C91 68.3005 71.3005 88 47 88H44C19.6995 88 0 68.3005 0 44Z" fill="#F1F1F1"/>
<path fill-rule="evenodd" clip-rule="evenodd" d="M52.7666 21.056C51.3588 19.648 49.076 19.648 47.6678 21.056L43.5889 25.1349C41.0546 27.6693 36.9456 27.6693 34.4113 25.1349L30.8422 21.5658C29.4342 20.1579 27.1515 20.1579 25.7435 21.5658C24.3355 22.9738 24.3355 25.2566 25.7435 26.6646L29.3126 30.2337C34.6629 35.584 43.3375 35.584 48.6878 30.2337L52.7666 26.1547C54.1745 24.7467 54.1745 22.464 52.7666 21.056Z" fill="#7C7C7C"/>
<path fill-rule="evenodd" clip-rule="evenodd" d="M25.2337 66.9441C26.6417 68.352 28.9245 68.352 30.3324 66.9441L34.4114 62.8652C36.9457 60.331 41.0547 60.331 43.5891 62.8652L47.1581 66.4343C48.5663 67.8421 50.8488 67.8421 52.257 66.4343C53.6648 65.0264 53.6648 62.7436 52.257 61.3354L48.6879 57.7664C43.3376 52.4161 34.663 52.4161 29.3127 57.7664L25.2337 61.8453C23.8257 63.2535 23.8257 65.5363 25.2337 66.9441Z" fill="#7C7C7C"/>
<path fill-rule="evenodd" clip-rule="evenodd" d="M16.056 57.7664C14.648 56.3586 14.648 54.0758 16.056 52.6676L20.1349 48.5887C22.6693 46.0544 22.6693 41.9453 20.1349 39.4111L16.5658 35.8419C15.1579 34.434 15.1579 32.1512 16.5658 30.7432C17.9738 29.3353 20.2566 29.3353 21.6646 30.7432L25.2337 34.3123C30.584 39.6626 30.584 48.3372 25.2337 53.6876L21.1547 57.7664C19.7467 59.1743 17.464 59.1743 16.056 57.7664Z" fill="#059669"/>
<path d="M50.3918 43.872C50.3918 44.4736 50.5134 45.0688 50.7566 45.6576C51.0126 46.2464 51.3518 46.7776 51.7742 47.2512C52.2094 47.712 52.715 48.0896 53.291 48.384C53.867 48.6784 54.4878 48.832 55.1534 48.8448C55.8446 48.8448 56.4526 48.7616 56.9774 48.5952C57.515 48.416 58.0526 48.1024 58.5902 47.6544C58.8462 47.4368 59.1278 47.2384 59.435 47.0592C59.755 46.8672 60.1006 46.7712 60.4718 46.7712C60.6894 46.7712 60.9198 46.8224 61.163 46.9248C61.4062 47.0144 61.6558 47.168 61.9118 47.3856C62.1294 47.5776 62.2894 47.808 62.3918 48.0768C62.507 48.3328 62.5582 48.608 62.5454 48.9024C62.5454 49.184 62.4814 49.4656 62.3534 49.7472C62.2382 50.0288 62.059 50.2976 61.8158 50.5536C61.0222 51.36 60.075 51.9744 58.9742 52.3968C57.8862 52.8192 56.7406 53.0304 55.5374 53.0304C54.2574 53.0304 53.0542 52.8 51.9278 52.3392C50.8014 51.8656 49.8158 51.2192 48.971 50.4C48.1262 49.5808 47.4606 48.6208 46.9742 47.52C46.4878 46.4064 46.2446 45.2096 46.2446 43.9296C46.2574 43.9168 46.2638 43.904 46.2638 43.8912H46.2446C46.2446 42.6112 46.4878 41.4144 46.9742 40.3008C47.4606 39.1744 48.1262 38.2016 48.971 37.3824C49.8158 36.5504 50.8014 35.8976 51.9278 35.424C53.0542 34.9504 54.2574 34.7136 55.5374 34.7136C56.7406 34.7136 57.8862 34.9184 58.9742 35.328C60.075 35.7248 61.0222 36.3264 61.8158 37.1328C62.059 37.376 62.2446 37.6448 62.3726 37.9392C62.5006 38.2208 62.5646 38.5088 62.5646 38.8032C62.5774 39.0848 62.5262 39.36 62.411 39.6288C62.2958 39.8848 62.123 40.1152 61.8926 40.32C61.6366 40.5376 61.3934 40.6912 61.163 40.7808C60.9326 40.8704 60.7086 40.9152 60.491 40.9152C60.1198 40.9152 59.7742 40.8256 59.4542 40.6464C59.147 40.4544 58.859 40.2496 58.5902 40.032C58.0526 39.6224 57.5214 39.328 56.9966 39.1488C56.4718 38.9696 55.9214 38.88 55.3454 38.88C54.6926 38.88 54.0654 39.0144 53.4638 39.2832C52.8622 39.552 52.3374 39.9168 51.8894 40.3776C51.4414 40.8384 51.083 41.3696 50.8142 41.9712C50.5454 42.5728 50.411 43.2 50.411 43.8528L50.3918 43.872Z" fill="#7C7C7C"/>
<path d="M65.2193 43.872C65.2193 42.6048 65.4625 41.4208 65.9489 40.32C66.4353 39.2064 67.0945 38.2336 67.9265 37.4016C68.7586 36.5696 69.725 35.9168 70.8258 35.4432C71.9394 34.9568 73.1234 34.7136 74.3778 34.7136C75.645 34.7136 76.8354 34.9568 77.949 35.4432C79.0626 35.9168 80.029 36.5696 80.8482 37.4016C81.6802 38.2336 82.333 39.2064 82.8066 40.32C83.2802 41.4208 83.517 42.6048 83.517 43.872C83.517 45.1264 83.2802 46.3104 82.8066 47.424C82.333 48.5376 81.6802 49.5104 80.8482 50.3424C80.029 51.1744 79.0626 51.8336 77.949 52.32C76.8354 52.7936 75.645 53.0304 74.3778 53.0304C73.4562 53.0304 72.573 52.9024 71.7282 52.6464C70.8962 52.3776 70.1154 52.0064 69.3858 51.5328V57.12C69.3858 57.4272 69.3346 57.7088 69.2322 57.9648C69.1426 58.2336 69.0082 58.464 68.829 58.656C68.6498 58.848 68.4322 59.0016 68.1762 59.1168C67.933 59.232 67.6577 59.2896 67.3505 59.2896C67.0561 59.2896 66.781 59.232 66.525 59.1168C66.2689 59.0016 66.0449 58.848 65.8529 58.656C65.6609 58.464 65.5073 58.2336 65.3921 57.9648C65.2769 57.7088 65.2193 57.4272 65.2193 57.12V43.872ZM69.3858 43.872C69.3858 44.5504 69.5138 45.1968 69.7698 45.8112C70.0386 46.4128 70.397 46.944 70.845 47.4048C71.3058 47.8528 71.837 48.2112 72.4386 48.48C73.0402 48.736 73.6866 48.864 74.3778 48.864C75.069 48.864 75.7154 48.736 76.317 48.48C76.9314 48.2112 77.4626 47.8528 77.9106 47.4048C78.3586 46.944 78.7106 46.4128 78.9666 45.8112C79.2226 45.1968 79.3506 44.5504 79.3506 43.872C79.3506 43.1808 79.2226 42.5344 78.9666 41.9328C78.7106 41.3184 78.3586 40.7872 77.9106 40.3392C77.4626 39.8912 76.9314 39.5392 76.317 39.2832C75.7154 39.0144 75.069 38.88 74.3778 38.88C73.6994 38.88 73.053 39.0144 72.4386 39.2832C71.837 39.5392 71.3058 39.8912 70.845 40.3392C70.397 40.7872 70.0386 41.3184 69.7698 41.9328C69.5138 42.5344 69.3858 43.1808 69.3858 43.872Z" fill="#059669"/>
</svg>
