<svg width="27" height="24" viewBox="0 0 27 24" fill="none" xmlns="http://www.w3.org/2000/svg">
<path fill-rule="evenodd" clip-rule="evenodd" d="M18.135 6.37967C17.4655 7.04914 17.4655 8.13456 18.135 8.80403L21.331 12L18.135 15.196C17.4655 15.8655 17.4655 16.9509 18.135 17.6204C18.8044 18.2898 19.8899 18.2898 20.5593 17.6204L26.1797 12L20.5593 6.37967C19.8899 5.7102 18.8044 5.7102 18.135 6.37967Z" fill="white"/>
<path fill-rule="evenodd" clip-rule="evenodd" d="M24 1.71429C24 0.767512 23.2325 0 22.2857 0H1.71429C0.767511 0 -2.38419e-07 0.767512 -2.38419e-07 1.71429C-2.38419e-07 2.66106 0.767511 3.42857 1.71429 3.42857H22.2857C23.2325 3.42857 24 2.66106 24 1.71429Z" fill="white"/>
<path fill-rule="evenodd" clip-rule="evenodd" d="M16.6533 12.0001C16.6533 11.0533 15.8858 10.2858 14.939 10.2858H1.71455C0.767773 10.2858 0.000261482 11.0533 0.000261482 12.0001C0.000261482 12.9468 0.767773 13.7143 1.71455 13.7143H14.939C15.8858 13.7143 16.6533 12.9468 16.6533 12.0001Z" fill="white"/>
<path fill-rule="evenodd" clip-rule="evenodd" d="M24 22.2857C24 21.3389 23.2325 20.5714 22.2857 20.5714H1.71429C0.767511 20.5714 -2.38419e-07 21.3389 -2.38419e-07 22.2857C-2.38419e-07 23.2325 0.767511 24 1.71429 24H22.2857C23.2325 24 24 23.2325 24 22.2857Z" fill="white"/>
</svg>
