<svg width="255" height="88" viewBox="0 0 255 88" fill="none" xmlns="http://www.w3.org/2000/svg">
<path d="M0 44C0 19.6995 19.6995 0 44 0H211C235.301 0 255 19.6995 255 44C255 68.3005 235.301 88 211 88H44C19.6995 88 0 68.3005 0 44Z" fill="#F1F1F1"/>
<path fill-rule="evenodd" clip-rule="evenodd" d="M90.7669 21.056C89.359 19.648 87.0762 19.648 85.668 21.056L81.5892 25.1349C79.0549 27.6693 74.9459 27.6693 72.4115 25.1349L68.8424 21.5658C67.4345 20.1579 65.1517 20.1579 63.7437 21.5658C62.3358 22.9738 62.3358 25.2566 63.7437 26.6646L67.3128 30.2337C72.6631 35.584 81.3377 35.584 86.688 30.2337L90.7669 26.1547C92.1747 24.7467 92.1747 22.464 90.7669 21.056Z" fill="#7C7C7C"/>
<path fill-rule="evenodd" clip-rule="evenodd" d="M63.2337 66.9441C64.6417 68.352 66.9245 68.352 68.3324 66.9441L72.4114 62.8652C74.9457 60.331 79.0547 60.331 81.5891 62.8652L85.1581 66.4343C86.5663 67.8421 88.8488 67.8421 90.257 66.4343C91.6648 65.0264 91.6648 62.7436 90.257 61.3354L86.6879 57.7664C81.3376 52.4161 72.663 52.4161 67.3127 57.7664L63.2337 61.8453C61.8257 63.2535 61.8257 65.5363 63.2337 66.9441Z" fill="#7C7C7C"/>
<path fill-rule="evenodd" clip-rule="evenodd" d="M54.056 57.7664C52.648 56.3586 52.648 54.0758 54.056 52.6676L58.1349 48.5887C60.6693 46.0544 60.6693 41.9453 58.1349 39.4111L54.5658 35.8419C53.1579 34.434 53.1579 32.1512 54.5658 30.7432C55.9738 29.3353 58.2566 29.3353 59.6646 30.7432L63.2337 34.3123C68.584 39.6626 68.584 48.3372 63.2337 53.6876L59.1547 57.7664C57.7467 59.1743 55.464 59.1743 54.056 57.7664Z" fill="#059669"/>
<path d="M88.3921 43.8721C88.3921 44.4737 88.5137 45.0689 88.7569 45.6577C89.0129 46.2465 89.3521 46.7777 89.7745 47.2513C90.2097 47.7121 90.7153 48.0897 91.2913 48.3841C91.8673 48.6785 92.4881 48.8321 93.1537 48.8449C93.8449 48.8449 94.4529 48.7617 94.9777 48.5953C95.5153 48.4161 96.0529 48.1025 96.5905 47.6545C96.8465 47.4369 97.1281 47.2385 97.4353 47.0593C97.7553 46.8673 98.1009 46.7713 98.4721 46.7713C98.6897 46.7713 98.9201 46.8225 99.1633 46.9249C99.4065 47.0145 99.6561 47.1681 99.9121 47.3857C100.13 47.5777 100.29 47.8081 100.392 48.0769C100.507 48.3329 100.558 48.6081 100.546 48.9025C100.546 49.1841 100.482 49.4657 100.354 49.7473C100.238 50.0289 100.059 50.2977 99.8161 50.5537C99.0225 51.3601 98.0753 51.9745 96.9745 52.3969C95.8865 52.8193 94.7409 53.0305 93.5377 53.0305C92.2577 53.0305 91.0545 52.8001 89.9281 52.3393C88.8017 51.8657 87.8161 51.2193 86.9713 50.4001C86.1265 49.5809 85.4609 48.6209 84.9745 47.5201C84.4881 46.4065 84.2449 45.2097 84.2449 43.9297C84.2577 43.9169 84.2641 43.9041 84.2641 43.8913H84.2449C84.2449 42.6113 84.4881 41.4145 84.9745 40.3009C85.4609 39.1745 86.1265 38.2017 86.9713 37.3825C87.8161 36.5505 88.8017 35.8977 89.9281 35.4241C91.0545 34.9505 92.2577 34.7137 93.5377 34.7137C94.7409 34.7137 95.8865 34.9185 96.9745 35.3281C98.0753 35.7249 99.0225 36.3265 99.8161 37.1329C100.059 37.3761 100.245 37.6449 100.373 37.9393C100.501 38.2209 100.565 38.5089 100.565 38.8033C100.578 39.0849 100.526 39.3601 100.411 39.6289C100.296 39.8849 100.123 40.1153 99.8929 40.3201C99.6369 40.5377 99.3937 40.6913 99.1633 40.7809C98.9329 40.8705 98.7089 40.9153 98.4913 40.9153C98.1201 40.9153 97.7745 40.8257 97.4545 40.6465C97.1473 40.4545 96.8593 40.2497 96.5905 40.0321C96.0529 39.6225 95.5217 39.3281 94.9969 39.1489C94.4721 38.9697 93.9217 38.8801 93.3457 38.8801C92.6929 38.8801 92.0657 39.0145 91.4641 39.2833C90.8625 39.5521 90.3377 39.9169 89.8897 40.3777C89.4417 40.8385 89.0833 41.3697 88.8145 41.9713C88.5457 42.5729 88.4113 43.2001 88.4113 43.8529L88.3921 43.8721Z" fill="#7C7C7C"/>
<path d="M103.22 43.8721C103.22 42.6049 103.463 41.4209 103.949 40.3201C104.436 39.2065 105.095 38.2337 105.927 37.4017C106.759 36.5697 107.725 35.9169 108.826 35.4433C109.94 34.9569 111.124 34.7137 112.378 34.7137C113.645 34.7137 114.836 34.9569 115.949 35.4433C117.063 35.9169 118.029 36.5697 118.848 37.4017C119.68 38.2337 120.333 39.2065 120.807 40.3201C121.28 41.4209 121.517 42.6049 121.517 43.8721C121.517 45.1265 121.28 46.3105 120.807 47.4241C120.333 48.5377 119.68 49.5105 118.848 50.3425C118.029 51.1745 117.063 51.8337 115.949 52.3201C114.836 52.7937 113.645 53.0305 112.378 53.0305C111.456 53.0305 110.573 52.9025 109.728 52.6465C108.896 52.3777 108.116 52.0065 107.386 51.5329V57.1201C107.386 57.4273 107.335 57.7089 107.232 57.9649C107.143 58.2337 107.008 58.4641 106.829 58.6561C106.65 58.8481 106.432 59.0017 106.176 59.1169C105.933 59.2321 105.658 59.2897 105.351 59.2897C105.056 59.2897 104.781 59.2321 104.525 59.1169C104.269 59.0017 104.045 58.8481 103.853 58.6561C103.661 58.4641 103.508 58.2337 103.392 57.9649C103.277 57.7089 103.22 57.4273 103.22 57.1201V43.8721ZM107.386 43.8721C107.386 44.5505 107.514 45.1969 107.77 45.8113C108.039 46.4129 108.397 46.9441 108.845 47.4049C109.306 47.8529 109.837 48.2113 110.439 48.4801C111.04 48.7361 111.687 48.8641 112.378 48.8641C113.069 48.8641 113.716 48.7361 114.317 48.4801C114.932 48.2113 115.463 47.8529 115.911 47.4049C116.359 46.9441 116.711 46.4129 116.967 45.8113C117.223 45.1969 117.351 44.5505 117.351 43.8721C117.351 43.1809 117.223 42.5345 116.967 41.9329C116.711 41.3185 116.359 40.7873 115.911 40.3393C115.463 39.8913 114.932 39.5393 114.317 39.2833C113.716 39.0145 113.069 38.8801 112.378 38.8801C111.7 38.8801 111.053 39.0145 110.439 39.2833C109.837 39.5393 109.306 39.8913 108.845 40.3393C108.397 40.7873 108.039 41.3185 107.77 41.9329C107.514 42.5345 107.386 43.1809 107.386 43.8721Z" fill="#059669"/>
<path d="M128.238 44.1793C128.238 44.8321 128.353 45.4465 128.583 46.0225C128.827 46.5857 129.153 47.0785 129.563 47.5009C129.985 47.9233 130.478 48.2561 131.041 48.4993C131.617 48.7425 132.231 48.8641 132.884 48.8641C133.55 48.8641 134.145 48.7425 134.67 48.4993C135.195 48.2433 135.636 47.9041 135.995 47.4817C136.366 47.0465 136.647 46.5409 136.839 45.9649C137.044 45.3889 137.147 44.7745 137.147 44.1217V37.0177C137.147 36.7233 137.204 36.4545 137.319 36.2113C137.435 35.9553 137.588 35.7377 137.78 35.5585C137.985 35.3665 138.215 35.2193 138.471 35.1169C138.727 35.0017 138.996 34.9441 139.278 34.9441C139.572 34.9441 139.841 35.0017 140.084 35.1169C140.327 35.2193 140.539 35.3665 140.718 35.5585C140.91 35.7377 141.057 35.9553 141.159 36.2113C141.262 36.4545 141.313 36.7233 141.313 37.0177V44.0641C141.313 45.2929 141.102 46.4513 140.679 47.5393C140.27 48.6273 139.694 49.5809 138.951 50.4001C138.209 51.2065 137.319 51.8465 136.283 52.3201C135.246 52.7937 134.113 53.0305 132.884 53.0305C131.655 53.0305 130.503 52.8001 129.428 52.3393C128.366 51.8657 127.438 51.2257 126.644 50.4193C125.851 49.6129 125.223 48.6721 124.763 47.5969C124.302 46.5217 124.071 45.3761 124.071 44.1601V37.0177C124.071 36.7233 124.123 36.4545 124.225 36.2113C124.34 35.9553 124.487 35.7377 124.667 35.5585C124.859 35.3665 125.083 35.2193 125.339 35.1169C125.595 35.0017 125.863 34.9441 126.145 34.9441C126.427 34.9441 126.695 35.0017 126.951 35.1169C127.207 35.2193 127.431 35.3665 127.623 35.5585C127.815 35.7377 127.963 35.9553 128.065 36.2113C128.18 36.4545 128.238 36.7233 128.238 37.0177V44.1793Z" fill="#059669"/>
<path d="M161.918 50.7841C161.918 51.0785 161.86 51.3537 161.745 51.6097C161.643 51.8529 161.502 52.0705 161.323 52.2625C161.144 52.4417 160.926 52.5825 160.67 52.6849C160.427 52.7873 160.164 52.8385 159.883 52.8385C159.601 52.8385 159.326 52.7873 159.057 52.6849C158.801 52.5825 158.577 52.4417 158.385 52.2625C158.193 52.0705 158.04 51.8529 157.924 51.6097C157.809 51.3537 157.752 51.0785 157.752 50.7841V43.6417C157.752 43.5393 157.758 43.4625 157.771 43.4113C157.745 42.7841 157.617 42.1953 157.387 41.6449C157.156 41.0945 156.843 40.6145 156.446 40.2049C156.049 39.7953 155.582 39.4753 155.044 39.2449C154.52 39.0017 153.937 38.8801 153.297 38.8801C152.644 38.8801 152.043 39.0017 151.492 39.2449C150.942 39.4753 150.468 39.8017 150.072 40.2241C149.688 40.6465 149.38 41.1457 149.15 41.7217C148.932 42.2849 148.824 42.8929 148.824 43.5457V50.7841C148.824 51.0785 148.772 51.3537 148.67 51.6097C148.568 51.8529 148.42 52.0705 148.228 52.2625C148.049 52.4417 147.838 52.5825 147.595 52.6849C147.352 52.7873 147.083 52.8385 146.788 52.8385C146.507 52.8385 146.238 52.7873 145.982 52.6849C145.726 52.5825 145.496 52.4417 145.291 52.2625C145.099 52.0705 144.945 51.8529 144.83 51.6097C144.715 51.3537 144.657 51.0785 144.657 50.7841V43.5457C144.657 42.3169 144.875 41.1713 145.31 40.1089C145.758 39.0337 146.366 38.0993 147.134 37.3057C147.915 36.4993 148.83 35.8657 149.88 35.4049C150.942 34.9441 152.081 34.7137 153.297 34.7137C154.526 34.7137 155.665 34.9441 156.715 35.4049C157.764 35.8657 158.673 36.4993 159.441 37.3057C160.209 38.0993 160.811 39.0337 161.246 40.1089C161.694 41.1713 161.918 42.3169 161.918 43.5457V50.7841Z" fill="#059669"/>
<path d="M168.53 43.8721C168.53 44.4737 168.651 45.0689 168.894 45.6577C169.15 46.2465 169.49 46.7777 169.912 47.2513C170.347 47.7121 170.853 48.0897 171.429 48.3841C172.005 48.6785 172.626 48.8321 173.291 48.8449C173.982 48.8449 174.59 48.7617 175.115 48.5953C175.653 48.4161 176.19 48.1025 176.728 47.6545C176.984 47.4369 177.266 47.2385 177.573 47.0593C177.893 46.8673 178.238 46.7713 178.61 46.7713C178.827 46.7713 179.058 46.8225 179.301 46.9249C179.544 47.0145 179.794 47.1681 180.05 47.3857C180.267 47.5777 180.427 47.8081 180.53 48.0769C180.645 48.3329 180.696 48.6081 180.683 48.9025C180.683 49.1841 180.619 49.4657 180.491 49.7473C180.376 50.0289 180.197 50.2977 179.954 50.5537C179.16 51.3601 178.213 51.9745 177.112 52.3969C176.024 52.8193 174.878 53.0305 173.675 53.0305C172.395 53.0305 171.192 52.8001 170.066 52.3393C168.939 51.8657 167.954 51.2193 167.109 50.4001C166.264 49.5809 165.598 48.6209 165.112 47.5201C164.626 46.4065 164.382 45.2097 164.382 43.9297C164.395 43.9169 164.402 43.9041 164.402 43.8913H164.382C164.382 42.6113 164.626 41.4145 165.112 40.3009C165.598 39.1745 166.264 38.2017 167.109 37.3825C167.954 36.5505 168.939 35.8977 170.066 35.4241C171.192 34.9505 172.395 34.7137 173.675 34.7137C174.878 34.7137 176.024 34.9185 177.112 35.3281C178.213 35.7249 179.16 36.3265 179.954 37.1329C180.197 37.3761 180.382 37.6449 180.51 37.9393C180.638 38.2209 180.702 38.5089 180.702 38.8033C180.715 39.0849 180.664 39.3601 180.549 39.6289C180.434 39.8849 180.261 40.1153 180.03 40.3201C179.774 40.5377 179.531 40.6913 179.301 40.7809C179.07 40.8705 178.846 40.9153 178.629 40.9153C178.258 40.9153 177.912 40.8257 177.592 40.6465C177.285 40.4545 176.997 40.2497 176.728 40.0321C176.19 39.6225 175.659 39.3281 175.134 39.1489C174.61 38.9697 174.059 38.8801 173.483 38.8801C172.83 38.8801 172.203 39.0145 171.602 39.2833C171 39.5521 170.475 39.9169 170.027 40.3777C169.579 40.8385 169.221 41.3697 168.952 41.9713C168.683 42.5729 168.549 43.2001 168.549 43.8529L168.53 43.8721Z" fill="#059669"/>
<path d="M201.079 50.7649C201.079 51.0465 201.021 51.3153 200.906 51.5713C200.804 51.8145 200.656 52.0321 200.464 52.2241C200.272 52.4033 200.048 52.5441 199.792 52.6465C199.549 52.7489 199.28 52.8001 198.986 52.8001C198.704 52.8001 198.436 52.7489 198.18 52.6465C197.936 52.5441 197.719 52.4033 197.527 52.2241C197.335 52.0321 197.181 51.8145 197.066 51.5713C196.964 51.3153 196.912 51.0465 196.912 50.7649V43.6801C196.912 43.6417 196.912 43.6033 196.912 43.5649C196.912 43.5137 196.919 43.4689 196.932 43.4305C196.919 42.7905 196.804 42.1953 196.586 41.6449C196.368 41.0945 196.068 40.6145 195.684 40.2049C195.312 39.7953 194.864 39.4753 194.34 39.2449C193.815 39.0017 193.232 38.8801 192.592 38.8801C191.94 38.8801 191.332 38.9953 190.768 39.2257C190.205 39.4433 189.719 39.7569 189.309 40.1665C188.9 40.5633 188.573 41.0433 188.33 41.6065C188.1 42.1569 187.984 42.7649 187.984 43.4305V50.7265C187.984 51.0081 187.927 51.2769 187.812 51.5329C187.709 51.7889 187.562 52.0129 187.37 52.2049C187.191 52.3841 186.973 52.5313 186.717 52.6465C186.474 52.7489 186.205 52.8001 185.911 52.8001C185.616 52.8001 185.341 52.7489 185.085 52.6465C184.829 52.5313 184.605 52.3841 184.413 52.2049C184.234 52.0129 184.087 51.7889 183.972 51.5329C183.869 51.2769 183.818 51.0081 183.818 50.7265V30.1633C183.818 29.8689 183.869 29.5937 183.972 29.3377C184.087 29.0817 184.24 28.8577 184.432 28.6657C184.624 28.4737 184.848 28.3265 185.104 28.2241C185.36 28.1089 185.629 28.0513 185.911 28.0513C186.205 28.0513 186.474 28.1089 186.717 28.2241C186.973 28.3265 187.191 28.4737 187.37 28.6657C187.562 28.8577 187.709 29.0817 187.812 29.3377C187.927 29.5937 187.984 29.8689 187.984 30.1633V36.4225C188.65 35.8849 189.367 35.4689 190.135 35.1745C190.916 34.8673 191.735 34.7137 192.592 34.7137C193.808 34.7137 194.935 34.9505 195.972 35.4241C197.008 35.8849 197.904 36.5185 198.66 37.3249C199.415 38.1185 200.004 39.0529 200.426 40.1281C200.861 41.2033 201.079 42.3489 201.079 43.5649V50.7649Z" fill="#059669"/>
</svg>
